<svg width="344" height="144" viewBox="0 0 344 144" fill="none" xmlns="http://www.w3.org/2000/svg">
<mask id="path-1-outside-1_141_8" maskUnits="userSpaceOnUse" x="0" y="24" width="345" height="88" fill="black">
<rect fill="white" y="24" width="345" height="88"/>
<path d="M31.2 38.608C38.304 38.608 44.512 40.016 49.824 42.832C55.136 45.648 59.232 49.616 62.112 54.736C65.056 59.792 66.528 65.648 66.528 72.304C66.528 78.896 65.056 84.752 62.112 89.872C59.232 94.992 55.104 98.96 49.728 101.776C44.416 104.592 38.24 106 31.2 106H5.952V38.608H31.2ZM30.144 91.792C36.352 91.792 41.184 90.096 44.64 86.704C48.096 83.312 49.824 78.512 49.824 72.304C49.824 66.096 48.096 61.264 44.64 57.808C41.184 54.352 36.352 52.624 30.144 52.624H22.368V91.792H30.144ZM126.198 78.352C126.198 79.888 126.102 81.488 125.91 83.152H88.758C89.014 86.48 90.07 89.04 91.926 90.832C93.846 92.56 96.182 93.424 98.934 93.424C103.03 93.424 105.878 91.696 107.478 88.24H124.95C124.054 91.76 122.422 94.928 120.054 97.744C117.75 100.56 114.838 102.768 111.318 104.368C107.798 105.968 103.862 106.768 99.51 106.768C94.262 106.768 89.59 105.648 85.494 103.408C81.398 101.168 78.198 97.968 75.894 93.808C73.59 89.648 72.438 84.784 72.438 79.216C72.438 73.648 73.558 68.784 75.798 64.624C78.102 60.464 81.302 57.264 85.398 55.024C89.494 52.784 94.198 51.664 99.51 51.664C104.694 51.664 109.302 52.752 113.334 54.928C117.366 57.104 120.502 60.208 122.742 64.24C125.046 68.272 126.198 72.976 126.198 78.352ZM109.398 74.032C109.398 71.216 108.438 68.976 106.518 67.312C104.598 65.648 102.198 64.816 99.318 64.816C96.566 64.816 94.23 65.616 92.31 67.216C90.454 68.816 89.302 71.088 88.854 74.032H109.398ZM164.714 92.08V106H156.362C150.41 106 145.77 104.56 142.442 101.68C139.114 98.736 137.45 93.968 137.45 87.376V66.064H130.922V52.432H137.45V39.376H153.866V52.432H164.618V66.064H153.866V87.568C153.866 89.168 154.25 90.32 155.018 91.024C155.786 91.728 157.066 92.08 158.858 92.08H164.714ZM170.594 79.12C170.594 73.616 171.618 68.784 173.666 64.624C175.778 60.464 178.626 57.264 182.21 55.024C185.794 52.784 189.794 51.664 194.21 51.664C197.986 51.664 201.282 52.432 204.098 53.968C206.978 55.504 209.186 57.52 210.722 60.016V52.432H227.138V106H210.722V98.416C209.122 100.912 206.882 102.928 204.002 104.464C201.186 106 197.89 106.768 194.114 106.768C189.762 106.768 185.794 105.648 182.21 103.408C178.626 101.104 175.778 97.872 173.666 93.712C171.618 89.488 170.594 84.624 170.594 79.12ZM210.722 79.216C210.722 75.12 209.57 71.888 207.266 69.52C205.026 67.152 202.274 65.968 199.01 65.968C195.746 65.968 192.962 67.152 190.658 69.52C188.418 71.824 187.298 75.024 187.298 79.12C187.298 83.216 188.418 86.48 190.658 88.912C192.962 91.28 195.746 92.464 199.01 92.464C202.274 92.464 205.026 91.28 207.266 88.912C209.57 86.544 210.722 83.312 210.722 79.216ZM247.271 46.864C244.391 46.864 242.023 46.032 240.167 44.368C238.375 42.64 237.479 40.528 237.479 38.032C237.479 35.472 238.375 33.36 240.167 31.696C242.023 29.968 244.391 29.104 247.271 29.104C250.087 29.104 252.391 29.968 254.183 31.696C256.039 33.36 256.967 35.472 256.967 38.032C256.967 40.528 256.039 42.64 254.183 44.368C252.391 46.032 250.087 46.864 247.271 46.864ZM255.431 52.432V106H239.015V52.432H255.431ZM283.743 34.96V106H267.327V34.96H283.743ZM317.432 106.768C312.76 106.768 308.6 105.968 304.952 104.368C301.304 102.768 298.424 100.592 296.312 97.84C294.2 95.024 293.016 91.888 292.76 88.432H308.984C309.176 90.288 310.04 91.792 311.576 92.944C313.112 94.096 315 94.672 317.24 94.672C319.288 94.672 320.856 94.288 321.944 93.52C323.096 92.688 323.672 91.632 323.672 90.352C323.672 88.816 322.872 87.696 321.272 86.992C319.672 86.224 317.08 85.392 313.496 84.496C309.656 83.6 306.456 82.672 303.896 81.712C301.336 80.688 299.128 79.12 297.272 77.008C295.416 74.832 294.488 71.92 294.488 68.272C294.488 65.2 295.32 62.416 296.984 59.92C298.712 57.36 301.208 55.344 304.472 53.872C307.8 52.4 311.736 51.664 316.28 51.664C323 51.664 328.28 53.328 332.12 56.656C336.024 59.984 338.264 64.4 338.84 69.904H323.672C323.416 68.048 322.584 66.576 321.176 65.488C319.832 64.4 318.04 63.856 315.8 63.856C313.88 63.856 312.408 64.24 311.384 65.008C310.36 65.712 309.848 66.704 309.848 67.984C309.848 69.52 310.648 70.672 312.248 71.44C313.912 72.208 316.472 72.976 319.928 73.744C323.896 74.768 327.128 75.792 329.624 76.816C332.12 77.776 334.296 79.376 336.152 81.616C338.072 83.792 339.064 86.736 339.128 90.448C339.128 93.584 338.232 96.4 336.44 98.896C334.712 101.328 332.184 103.248 328.856 104.656C325.592 106.064 321.784 106.768 317.432 106.768Z"/>
</mask>
<path d="M31.2 38.608C38.304 38.608 44.512 40.016 49.824 42.832C55.136 45.648 59.232 49.616 62.112 54.736C65.056 59.792 66.528 65.648 66.528 72.304C66.528 78.896 65.056 84.752 62.112 89.872C59.232 94.992 55.104 98.96 49.728 101.776C44.416 104.592 38.24 106 31.2 106H5.952V38.608H31.2ZM30.144 91.792C36.352 91.792 41.184 90.096 44.64 86.704C48.096 83.312 49.824 78.512 49.824 72.304C49.824 66.096 48.096 61.264 44.64 57.808C41.184 54.352 36.352 52.624 30.144 52.624H22.368V91.792H30.144ZM126.198 78.352C126.198 79.888 126.102 81.488 125.91 83.152H88.758C89.014 86.48 90.07 89.04 91.926 90.832C93.846 92.56 96.182 93.424 98.934 93.424C103.03 93.424 105.878 91.696 107.478 88.24H124.95C124.054 91.76 122.422 94.928 120.054 97.744C117.75 100.56 114.838 102.768 111.318 104.368C107.798 105.968 103.862 106.768 99.51 106.768C94.262 106.768 89.59 105.648 85.494 103.408C81.398 101.168 78.198 97.968 75.894 93.808C73.59 89.648 72.438 84.784 72.438 79.216C72.438 73.648 73.558 68.784 75.798 64.624C78.102 60.464 81.302 57.264 85.398 55.024C89.494 52.784 94.198 51.664 99.51 51.664C104.694 51.664 109.302 52.752 113.334 54.928C117.366 57.104 120.502 60.208 122.742 64.24C125.046 68.272 126.198 72.976 126.198 78.352ZM109.398 74.032C109.398 71.216 108.438 68.976 106.518 67.312C104.598 65.648 102.198 64.816 99.318 64.816C96.566 64.816 94.23 65.616 92.31 67.216C90.454 68.816 89.302 71.088 88.854 74.032H109.398ZM164.714 92.08V106H156.362C150.41 106 145.77 104.56 142.442 101.68C139.114 98.736 137.45 93.968 137.45 87.376V66.064H130.922V52.432H137.45V39.376H153.866V52.432H164.618V66.064H153.866V87.568C153.866 89.168 154.25 90.32 155.018 91.024C155.786 91.728 157.066 92.08 158.858 92.08H164.714ZM170.594 79.12C170.594 73.616 171.618 68.784 173.666 64.624C175.778 60.464 178.626 57.264 182.21 55.024C185.794 52.784 189.794 51.664 194.21 51.664C197.986 51.664 201.282 52.432 204.098 53.968C206.978 55.504 209.186 57.52 210.722 60.016V52.432H227.138V106H210.722V98.416C209.122 100.912 206.882 102.928 204.002 104.464C201.186 106 197.89 106.768 194.114 106.768C189.762 106.768 185.794 105.648 182.21 103.408C178.626 101.104 175.778 97.872 173.666 93.712C171.618 89.488 170.594 84.624 170.594 79.12ZM210.722 79.216C210.722 75.12 209.57 71.888 207.266 69.52C205.026 67.152 202.274 65.968 199.01 65.968C195.746 65.968 192.962 67.152 190.658 69.52C188.418 71.824 187.298 75.024 187.298 79.12C187.298 83.216 188.418 86.48 190.658 88.912C192.962 91.28 195.746 92.464 199.01 92.464C202.274 92.464 205.026 91.28 207.266 88.912C209.57 86.544 210.722 83.312 210.722 79.216ZM247.271 46.864C244.391 46.864 242.023 46.032 240.167 44.368C238.375 42.64 237.479 40.528 237.479 38.032C237.479 35.472 238.375 33.36 240.167 31.696C242.023 29.968 244.391 29.104 247.271 29.104C250.087 29.104 252.391 29.968 254.183 31.696C256.039 33.36 256.967 35.472 256.967 38.032C256.967 40.528 256.039 42.64 254.183 44.368C252.391 46.032 250.087 46.864 247.271 46.864ZM255.431 52.432V106H239.015V52.432H255.431ZM283.743 34.96V106H267.327V34.96H283.743ZM317.432 106.768C312.76 106.768 308.6 105.968 304.952 104.368C301.304 102.768 298.424 100.592 296.312 97.84C294.2 95.024 293.016 91.888 292.76 88.432H308.984C309.176 90.288 310.04 91.792 311.576 92.944C313.112 94.096 315 94.672 317.24 94.672C319.288 94.672 320.856 94.288 321.944 93.52C323.096 92.688 323.672 91.632 323.672 90.352C323.672 88.816 322.872 87.696 321.272 86.992C319.672 86.224 317.08 85.392 313.496 84.496C309.656 83.6 306.456 82.672 303.896 81.712C301.336 80.688 299.128 79.12 297.272 77.008C295.416 74.832 294.488 71.92 294.488 68.272C294.488 65.2 295.32 62.416 296.984 59.92C298.712 57.36 301.208 55.344 304.472 53.872C307.8 52.4 311.736 51.664 316.28 51.664C323 51.664 328.28 53.328 332.12 56.656C336.024 59.984 338.264 64.4 338.84 69.904H323.672C323.416 68.048 322.584 66.576 321.176 65.488C319.832 64.4 318.04 63.856 315.8 63.856C313.88 63.856 312.408 64.24 311.384 65.008C310.36 65.712 309.848 66.704 309.848 67.984C309.848 69.52 310.648 70.672 312.248 71.44C313.912 72.208 316.472 72.976 319.928 73.744C323.896 74.768 327.128 75.792 329.624 76.816C332.12 77.776 334.296 79.376 336.152 81.616C338.072 83.792 339.064 86.736 339.128 90.448C339.128 93.584 338.232 96.4 336.44 98.896C334.712 101.328 332.184 103.248 328.856 104.656C325.592 106.064 321.784 106.768 317.432 106.768Z" fill="#FFB610"/>
<path d="M49.824 42.832L52.1659 38.4144L52.1659 38.4143L49.824 42.832ZM62.112 54.736L57.7541 57.1873L57.7724 57.2198L57.7911 57.2519L62.112 54.736ZM62.112 89.872L57.7775 87.3796L57.7657 87.4001L57.7541 87.4207L62.112 89.872ZM49.728 101.776L47.408 97.3468L47.397 97.3526L47.3861 97.3584L49.728 101.776ZM5.952 106H0.952V111H5.952V106ZM5.952 38.608V33.608H0.952V38.608H5.952ZM22.368 52.624V47.624H17.368V52.624H22.368ZM22.368 91.792H17.368V96.792H22.368V91.792ZM31.2 43.608C37.6356 43.608 43.0119 44.8799 47.4821 47.2496L52.1659 38.4143C46.0121 35.1521 38.9724 33.608 31.2 33.608V43.608ZM47.4821 47.2496C51.9686 49.628 55.3554 52.9229 57.7541 57.1873L66.4699 52.2847C63.1086 46.3091 58.3034 41.668 52.1659 38.4144L47.4821 47.2496ZM57.7911 57.2519C60.2319 61.4437 61.528 66.4081 61.528 72.304H71.528C71.528 64.8879 69.8801 58.1403 66.4329 52.22L57.7911 57.2519ZM61.528 72.304C61.528 78.1252 60.2364 83.1032 57.7775 87.3796L66.4465 92.3644C69.8756 86.4008 71.528 79.6668 71.528 72.304H61.528ZM57.7541 87.4207C55.3643 91.6693 51.9577 94.9636 47.408 97.3468L52.048 106.205C58.2503 102.956 63.0997 98.3147 66.4699 92.3233L57.7541 87.4207ZM47.3861 97.3584C42.9096 99.7314 37.5633 101 31.2 101V111C38.9167 111 45.9224 109.453 52.0699 106.194L47.3861 97.3584ZM31.2 101H5.952V111H31.2V101ZM10.952 106V38.608H0.952V106H10.952ZM5.952 43.608H31.2V33.608H5.952V43.608ZM30.144 96.792C37.2762 96.792 43.5082 94.8207 48.1423 90.2724L41.1377 83.1356C38.8598 85.3713 35.4278 86.792 30.144 86.792V96.792ZM48.1423 90.2724C52.8071 85.6941 54.824 79.4567 54.824 72.304H44.824C44.824 77.5673 43.385 80.9299 41.1377 83.1356L48.1423 90.2724ZM54.824 72.304C54.824 65.1463 52.8055 58.9024 48.1755 54.2725L41.1045 61.3435C43.3865 63.6256 44.824 67.0457 44.824 72.304H54.824ZM48.1755 54.2725C43.5456 49.6425 37.3017 47.624 30.144 47.624V57.624C35.4023 57.624 38.8224 59.0615 41.1045 61.3435L48.1755 54.2725ZM30.144 47.624H22.368V57.624H30.144V47.624ZM17.368 52.624V91.792H27.368V52.624H17.368ZM22.368 96.792H30.144V86.792H22.368V96.792ZM125.91 83.152V88.152H130.366L130.877 83.7251L125.91 83.152ZM88.758 83.152V78.152H83.3586L83.7727 83.5355L88.758 83.152ZM91.926 90.832L88.453 94.429L88.5161 94.4899L88.5812 94.5485L91.926 90.832ZM107.478 88.24V83.24H104.283L102.941 86.1394L107.478 88.24ZM124.95 88.24L129.795 89.4734L131.382 83.24H124.95V88.24ZM120.054 97.744L116.227 94.526L116.206 94.5518L116.184 94.5778L120.054 97.744ZM111.318 104.368L113.387 108.92L111.318 104.368ZM85.494 103.408L83.0949 107.795L83.0949 107.795L85.494 103.408ZM75.894 93.808L80.268 91.3855L80.268 91.3855L75.894 93.808ZM75.798 64.624L71.424 62.2015L71.4097 62.2274L71.3956 62.2535L75.798 64.624ZM85.398 55.024L87.7971 59.4109L87.7971 59.4109L85.398 55.024ZM113.334 54.928L110.959 59.3281L110.959 59.3281L113.334 54.928ZM122.742 64.24L118.371 66.6682L118.386 66.6945L118.401 66.7207L122.742 64.24ZM109.398 74.032V79.032H114.398V74.032H109.398ZM106.518 67.312L109.793 63.5336L109.793 63.5336L106.518 67.312ZM92.31 67.216L89.1091 63.3749L89.077 63.4017L89.0453 63.4289L92.31 67.216ZM88.854 74.032L83.9109 73.2798L83.0356 79.032H88.854V74.032ZM121.198 78.352C121.198 79.6802 121.115 81.0883 120.943 82.5789L130.877 83.7251C131.089 81.8877 131.198 80.0958 131.198 78.352H121.198ZM125.91 78.152H88.758V88.152H125.91V78.152ZM83.7727 83.5355C84.0943 87.7159 85.4833 91.5617 88.453 94.429L95.399 87.235C94.6567 86.5183 93.9337 85.2441 93.7433 82.7685L83.7727 83.5355ZM88.5812 94.5485C91.4828 97.1599 95.0349 98.424 98.934 98.424V88.424C97.3291 88.424 96.2092 87.9601 95.2708 87.1155L88.5812 94.5485ZM98.934 98.424C101.687 98.424 104.368 97.8392 106.736 96.4027C109.127 94.9521 110.86 92.8372 112.015 90.3406L102.941 86.1394C102.496 87.0988 102.005 87.5759 101.548 87.8533C101.068 88.1448 100.277 88.424 98.934 88.424V98.424ZM107.478 93.24H124.95V83.24H107.478V93.24ZM120.105 87.0066C119.397 89.7871 118.117 92.2786 116.227 94.526L123.881 100.962C126.727 97.5774 128.711 93.7329 129.795 89.4734L120.105 87.0066ZM116.184 94.5778C114.396 96.7628 112.115 98.5133 109.249 99.8162L113.387 108.92C117.561 107.023 121.104 104.357 123.924 100.91L116.184 94.5778ZM109.249 99.8162C106.456 101.086 103.238 101.768 99.51 101.768V111.768C104.486 111.768 109.14 110.85 113.387 108.92L109.249 99.8162ZM99.51 101.768C94.9947 101.768 91.1659 100.811 87.8931 99.0211L83.0949 107.795C88.0141 110.485 93.5293 111.768 99.51 111.768V101.768ZM87.8931 99.0211C84.6444 97.2445 82.1221 94.7332 80.268 91.3855L71.52 96.2305C74.2739 101.203 78.1516 105.091 83.0949 107.795L87.8931 99.0211ZM80.268 91.3855C78.4398 88.0846 77.438 84.082 77.438 79.216H67.438C67.438 85.486 68.7402 91.2114 71.52 96.2305L80.268 91.3855ZM77.438 79.216C77.438 74.3276 78.4172 70.3061 80.2004 66.9945L71.3956 62.2535C68.6988 67.2619 67.438 72.9683 67.438 79.216H77.438ZM80.172 67.0465C82.0261 63.6988 84.5484 61.1875 87.7971 59.4109L82.9989 50.6371C78.0556 53.3405 74.1779 57.2292 71.424 62.2015L80.172 67.0465ZM87.7971 59.4109C91.0612 57.6258 94.9194 56.664 99.51 56.664V46.664C93.4766 46.664 87.9268 47.9422 82.9989 50.6371L87.7971 59.4109ZM99.51 56.664C103.975 56.664 107.748 57.5952 110.959 59.3281L115.709 50.5279C110.856 47.9088 105.413 46.664 99.51 46.664V56.664ZM110.959 59.3281C114.145 61.0476 116.591 63.4646 118.371 66.6682L127.113 61.8118C124.413 56.9514 120.587 53.1604 115.709 50.5279L110.959 59.3281ZM118.401 66.7207C120.209 69.8853 121.198 73.7074 121.198 78.352H131.198C131.198 72.2446 129.883 66.6587 127.083 61.7593L118.401 66.7207ZM114.398 74.032C114.398 69.9423 112.935 66.257 109.793 63.5336L103.243 71.0904C103.941 71.695 104.398 72.4897 104.398 74.032H114.398ZM109.793 63.5336C106.842 60.9763 103.23 59.816 99.318 59.816V69.816C101.166 69.816 102.354 70.3197 103.243 71.0904L109.793 63.5336ZM99.318 59.816C95.5228 59.816 92.0203 60.9489 89.1091 63.3749L95.5109 71.0571C96.4397 70.2831 97.6092 69.816 99.318 69.816V59.816ZM89.0453 63.4289C86.1018 65.9665 84.4981 69.4209 83.9109 73.2798L93.7971 74.7842C94.1059 72.7551 94.8062 71.6655 95.5747 71.003L89.0453 63.4289ZM88.854 79.032H109.398V69.032H88.854V79.032ZM164.714 92.08H169.714V87.08H164.714V92.08ZM164.714 106V111H169.714V106H164.714ZM142.442 101.68L139.129 105.425L139.15 105.443L139.17 105.461L142.442 101.68ZM137.45 66.064H142.45V61.064H137.45V66.064ZM130.922 66.064H125.922V71.064H130.922V66.064ZM130.922 52.432V47.432H125.922V52.432H130.922ZM137.45 52.432V57.432H142.45V52.432H137.45ZM137.45 39.376V34.376H132.45V39.376H137.45ZM153.866 39.376H158.866V34.376H153.866V39.376ZM153.866 52.432H148.866V57.432H153.866V52.432ZM164.618 52.432H169.618V47.432H164.618V52.432ZM164.618 66.064V71.064H169.618V66.064H164.618ZM153.866 66.064V61.064H148.866V66.064H153.866ZM155.018 91.024L151.64 94.7098L151.64 94.7098L155.018 91.024ZM159.714 92.08V106H169.714V92.08H159.714ZM164.714 101H156.362V111H164.714V101ZM156.362 101C151.186 101 147.856 99.7528 145.714 97.8992L139.17 105.461C143.684 109.367 149.635 111 156.362 111V101ZM145.755 97.935C143.932 96.3223 142.45 93.2367 142.45 87.376H132.45C132.45 94.6993 134.296 101.15 139.129 105.425L145.755 97.935ZM142.45 87.376V66.064H132.45V87.376H142.45ZM137.45 61.064H130.922V71.064H137.45V61.064ZM135.922 66.064V52.432H125.922V66.064H135.922ZM130.922 57.432H137.45V47.432H130.922V57.432ZM142.45 52.432V39.376H132.45V52.432H142.45ZM137.45 44.376H153.866V34.376H137.45V44.376ZM148.866 39.376V52.432H158.866V39.376H148.866ZM153.866 57.432H164.618V47.432H153.866V57.432ZM159.618 52.432V66.064H169.618V52.432H159.618ZM164.618 61.064H153.866V71.064H164.618V61.064ZM148.866 66.064V87.568H158.866V66.064H148.866ZM148.866 87.568C148.866 89.8245 149.394 92.6513 151.64 94.7098L158.397 87.3382C158.557 87.4852 158.677 87.6383 158.762 87.7752C158.846 87.9091 158.884 88.0095 158.898 88.0509C158.911 88.0905 158.902 88.0768 158.89 87.993C158.879 87.9092 158.866 87.7707 158.866 87.568H148.866ZM151.64 94.7098C153.799 96.6888 156.645 97.08 158.858 97.08V87.08C158.571 87.08 158.348 87.0658 158.179 87.0465C158.01 87.0271 157.916 87.0047 157.88 86.995C157.801 86.9732 158.058 87.0277 158.397 87.3382L151.64 94.7098ZM158.858 97.08H164.714V87.08H158.858V97.08ZM173.666 64.624L169.208 62.3605L169.194 62.388L169.18 62.4156L173.666 64.624ZM182.21 55.024L184.86 59.264L184.86 59.264L182.21 55.024ZM204.098 53.968L201.704 58.3575L201.725 58.3687L201.745 58.3798L204.098 53.968ZM210.722 60.016L206.464 62.6365L215.722 77.6812V60.016H210.722ZM210.722 52.432V47.432H205.722V52.432H210.722ZM227.138 52.432H232.138V47.432H227.138V52.432ZM227.138 106V111H232.138V106H227.138ZM210.722 106H205.722V111H210.722V106ZM210.722 98.416H215.722V81.351L206.513 95.7177L210.722 98.416ZM204.002 104.464L201.649 100.052L201.629 100.063L201.608 100.075L204.002 104.464ZM182.21 103.408L179.506 107.614L179.533 107.631L179.56 107.648L182.21 103.408ZM173.666 93.712L169.167 95.8934L169.187 95.9346L169.208 95.9755L173.666 93.712ZM207.266 69.52L203.634 72.956L203.658 72.9816L203.683 73.0068L207.266 69.52ZM190.658 69.52L187.075 66.0332L187.073 66.0346L190.658 69.52ZM190.658 88.912L186.981 92.2994L187.027 92.3497L187.075 92.3988L190.658 88.912ZM207.266 88.912L203.683 85.4252L203.658 85.4504L203.634 85.476L207.266 88.912ZM175.594 79.12C175.594 74.2397 176.5 70.1884 178.152 66.8324L169.18 62.4156C166.737 67.3796 165.594 72.9923 165.594 79.12H175.594ZM178.125 66.8875C179.869 63.4517 182.126 60.9728 184.86 59.264L179.56 50.784C175.126 53.5552 171.688 57.4763 169.208 62.3605L178.125 66.8875ZM184.86 59.264C187.613 57.5435 190.687 56.664 194.21 56.664V46.664C188.901 46.664 183.976 48.0245 179.56 50.784L184.86 59.264ZM194.21 56.664C197.298 56.664 199.743 57.2876 201.704 58.3575L206.493 49.5785C202.822 47.5763 198.674 46.664 194.21 46.664V56.664ZM201.745 58.3798C203.934 59.5469 205.444 60.9795 206.464 62.6365L214.981 57.3955C212.928 54.0605 210.023 51.4611 206.451 49.5562L201.745 58.3798ZM215.722 60.016V52.432H205.722V60.016H215.722ZM210.722 57.432H227.138V47.432H210.722V57.432ZM222.138 52.432V106H232.138V52.432H222.138ZM227.138 101H210.722V111H227.138V101ZM215.722 106V98.416H205.722V106H215.722ZM206.513 95.7177C205.42 97.422 203.852 98.8774 201.649 100.052L206.355 108.876C209.912 106.979 212.824 104.402 214.932 101.114L206.513 95.7177ZM201.608 100.075C199.647 101.144 197.202 101.768 194.114 101.768V111.768C198.578 111.768 202.726 110.856 206.397 108.853L201.608 100.075ZM194.114 101.768C190.67 101.768 187.625 100.896 184.86 99.168L179.56 107.648C183.963 110.4 188.854 111.768 194.114 111.768V101.768ZM184.914 99.2021C182.147 97.4232 179.874 94.8942 178.125 91.4485L169.208 95.9755C171.683 100.85 175.106 104.785 179.506 107.614L184.914 99.2021ZM178.165 91.5306C176.499 88.0943 175.594 83.998 175.594 79.12H165.594C165.594 85.25 166.737 90.8817 169.167 95.8934L178.165 91.5306ZM215.722 79.216C215.722 74.1469 214.268 69.5467 210.85 66.0332L203.683 73.0068C204.872 74.2293 205.722 76.0931 205.722 79.216H215.722ZM210.899 66.084C207.713 62.7161 203.646 60.968 199.01 60.968V70.968C200.902 70.968 202.34 71.5879 203.634 72.956L210.899 66.084ZM199.01 60.968C194.378 60.968 190.307 62.7111 187.075 66.0332L194.242 73.0068C195.618 71.5929 197.115 70.968 199.01 70.968V60.968ZM187.073 66.0346C183.695 69.5093 182.298 74.0959 182.298 79.12H192.298C192.298 75.9521 193.141 74.1387 194.243 73.0054L187.073 66.0346ZM182.298 79.12C182.298 84.1575 183.699 88.7369 186.981 92.2994L194.336 85.5246C193.137 84.2231 192.298 82.2745 192.298 79.12H182.298ZM187.075 92.3988C190.307 95.7209 194.378 97.464 199.01 97.464V87.464C197.115 87.464 195.618 86.8391 194.242 85.4252L187.075 92.3988ZM199.01 97.464C203.646 97.464 207.713 95.7159 210.899 92.348L203.634 85.476C202.34 86.8441 200.902 87.464 199.01 87.464V97.464ZM210.85 92.3988C214.268 88.8853 215.722 84.2851 215.722 79.216H205.722C205.722 82.3389 204.872 84.2027 203.683 85.4252L210.85 92.3988ZM240.167 44.368L236.696 47.9672L236.761 48.0302L236.829 48.0908L240.167 44.368ZM240.167 31.696L243.569 35.36L243.574 35.3555L240.167 31.696ZM254.183 31.696L250.712 35.2952L250.777 35.3582L250.845 35.4188L254.183 31.696ZM254.183 44.368L257.585 48.032L257.59 48.0275L254.183 44.368ZM255.431 52.432H260.431V47.432H255.431V52.432ZM255.431 106V111H260.431V106H255.431ZM239.015 106H234.015V111H239.015V106ZM239.015 52.432V47.432H234.015V52.432H239.015ZM247.271 41.864C245.419 41.864 244.302 41.3601 243.504 40.6451L236.829 48.0908C239.743 50.7038 243.362 51.864 247.271 51.864V41.864ZM243.637 40.7688C242.825 39.986 242.479 39.1744 242.479 38.032H232.479C232.479 41.8815 233.924 45.294 236.696 47.9672L243.637 40.7688ZM242.479 38.032C242.479 36.7889 242.848 36.0291 243.569 35.36L236.764 28.032C233.901 30.6909 232.479 34.1551 232.479 38.032H242.479ZM243.574 35.3555C244.377 34.6071 245.47 34.104 247.271 34.104V24.104C243.311 24.104 239.668 25.3289 236.759 28.0365L243.574 35.3555ZM247.271 34.104C248.976 34.104 249.976 34.586 250.712 35.2952L257.653 28.0968C254.805 25.35 251.197 24.104 247.271 24.104V34.104ZM250.845 35.4188C251.611 36.1056 251.967 36.8491 251.967 38.032H261.967C261.967 34.0949 260.466 30.6144 257.52 27.9731L250.845 35.4188ZM251.967 38.032C251.967 39.115 251.634 39.9092 250.775 40.7085L257.59 48.0275C260.443 45.3708 261.967 41.941 261.967 38.032H251.967ZM250.78 40.704C250.053 41.3793 249.029 41.864 247.271 41.864V51.864C251.144 51.864 254.728 50.6847 257.585 48.032L250.78 40.704ZM250.431 52.432V106H260.431V52.432H250.431ZM255.431 101H239.015V111H255.431V101ZM244.015 106V52.432H234.015V106H244.015ZM239.015 57.432H255.431V47.432H239.015V57.432ZM283.743 34.96H288.743V29.96H283.743V34.96ZM283.743 106V111H288.743V106H283.743ZM267.327 106H262.327V111H267.327V106ZM267.327 34.96V29.96H262.327V34.96H267.327ZM278.743 34.96V106H288.743V34.96H278.743ZM283.743 101H267.327V111H283.743V101ZM272.327 106V34.96H262.327V106H272.327ZM267.327 39.96H283.743V29.96H267.327V39.96ZM304.952 104.368L306.96 99.7891L306.96 99.7891L304.952 104.368ZM296.312 97.84L292.312 100.84L292.328 100.862L292.345 100.884L296.312 97.84ZM292.76 88.432V83.432H287.375L287.773 88.8014L292.76 88.432ZM308.984 88.432L313.957 87.9175L313.493 83.432H308.984V88.432ZM311.576 92.944L314.576 88.944L314.576 88.944L311.576 92.944ZM321.944 93.52L324.827 97.6048L324.849 97.5892L324.871 97.5734L321.944 93.52ZM321.272 86.992L319.108 91.4996L319.182 91.5353L319.258 91.5686L321.272 86.992ZM313.496 84.496L314.708 79.6453L314.67 79.6357L314.632 79.6268L313.496 84.496ZM303.896 81.712L302.039 86.3544L302.089 86.3746L302.14 86.3936L303.896 81.712ZM297.272 77.008L293.467 80.2527L293.491 80.2808L293.516 80.3086L297.272 77.008ZM296.984 59.92L292.839 57.1226L292.831 57.1345L292.823 57.1465L296.984 59.92ZM304.472 53.872L302.449 49.2993L302.432 49.3066L302.416 49.3141L304.472 53.872ZM332.12 56.656L328.845 60.4344L328.86 60.4478L328.876 60.4611L332.12 56.656ZM338.84 69.904V74.904H344.39L343.812 69.3836L338.84 69.904ZM323.672 69.904L318.718 70.5872L319.314 74.904H323.672V69.904ZM321.176 65.488L318.03 69.3742L318.073 69.4098L318.118 69.4444L321.176 65.488ZM311.384 65.008L314.216 69.1282L314.301 69.0698L314.383 69.008L311.384 65.008ZM312.248 71.44L310.084 75.9476L310.118 75.964L310.152 75.9798L312.248 71.44ZM319.928 73.744L321.177 68.9026L321.095 68.8814L321.012 68.8631L319.928 73.744ZM329.624 76.816L327.726 81.4418L327.777 81.4629L327.829 81.4827L329.624 76.816ZM336.152 81.616L332.301 84.8061L332.351 84.8659L332.402 84.9241L336.152 81.616ZM339.128 90.448H344.128V90.4049L344.127 90.3618L339.128 90.448ZM336.44 98.896L332.378 95.98L332.371 95.9899L332.364 96L336.44 98.896ZM328.856 104.656L326.907 100.051L326.891 100.058L326.875 100.065L328.856 104.656ZM317.432 101.768C313.333 101.768 309.875 101.068 306.96 99.7891L302.943 108.947C307.324 110.868 312.186 111.768 317.432 111.768V101.768ZM306.96 99.7891C303.968 98.4768 301.805 96.786 300.278 94.7959L292.345 100.884C295.042 104.398 298.639 107.059 302.943 108.947L306.96 99.7891ZM300.312 94.84C298.763 92.7758 297.93 90.5497 297.746 88.0626L287.773 88.8014C288.101 93.2263 289.636 97.2722 292.312 100.84L300.312 94.84ZM292.76 93.432H308.984V83.432H292.76V93.432ZM304.01 88.9465C304.35 92.2334 305.961 94.9834 308.576 96.944L314.576 88.944C314.118 88.6006 314.001 88.3426 313.957 87.9175L304.01 88.9465ZM308.576 96.944C311.116 98.849 314.105 99.672 317.24 99.672V89.672C315.894 89.672 315.107 89.343 314.576 88.944L308.576 96.944ZM317.24 99.672C319.801 99.672 322.552 99.2104 324.827 97.6048L319.06 89.4352C319.123 89.3905 319.064 89.4537 318.762 89.5275C318.455 89.6027 317.964 89.672 317.24 89.672V99.672ZM324.871 97.5734C327.158 95.9214 328.672 93.4321 328.672 90.352H318.672C318.672 90.2107 318.712 89.9633 318.85 89.7097C318.979 89.4741 319.096 89.409 319.016 89.4666L324.871 97.5734ZM328.672 90.352C328.672 88.6682 328.215 86.9591 327.14 85.4538C326.094 83.9897 324.689 83.0331 323.285 82.4154L319.258 91.5686C319.454 91.6549 319.249 91.6103 319.003 91.2662C318.882 91.0973 318.791 90.908 318.734 90.72C318.679 90.5371 318.672 90.4046 318.672 90.352H328.672ZM323.435 82.4844C321.353 81.485 318.348 80.5551 314.708 79.6453L312.283 89.3467C315.811 90.2289 317.99 90.963 319.108 91.4996L323.435 82.4844ZM314.632 79.6268C310.919 78.7604 307.942 77.8895 305.651 77.0304L302.14 86.3936C304.969 87.4545 308.392 88.4396 312.359 89.3652L314.632 79.6268ZM305.752 77.0696C303.937 76.3434 302.375 75.2412 301.027 73.7074L293.516 80.3086C295.88 82.9988 298.734 85.0326 302.039 86.3544L305.752 77.0696ZM301.076 73.7633C300.185 72.7186 299.488 71.0665 299.488 68.272H289.488C289.488 72.7735 290.646 76.9454 293.467 80.2527L301.076 73.7633ZM299.488 68.272C299.488 66.1619 300.041 64.3474 301.144 62.6935L292.823 57.1465C290.598 60.4846 289.488 64.2381 289.488 68.272H299.488ZM301.128 62.7174C302.258 61.0426 303.972 59.5822 306.527 58.4299L302.416 49.3141C298.443 51.1058 295.165 53.6774 292.839 57.1226L301.128 62.7174ZM306.494 58.4447C309.047 57.3153 312.264 56.664 316.28 56.664V46.664C311.207 46.664 306.552 47.4847 302.449 49.2993L306.494 58.4447ZM316.28 56.664C322.19 56.664 326.173 58.1186 328.845 60.4344L335.394 52.8776C330.386 48.5374 323.809 46.664 316.28 46.664V56.664ZM328.876 60.4611C331.722 62.8874 333.413 66.0864 333.867 70.4244L343.812 69.3836C343.114 62.7136 340.325 57.0806 335.363 52.8509L328.876 60.4611ZM338.84 64.904H323.672V74.904H338.84V64.904ZM328.625 69.2208C328.2 66.1437 326.736 63.4661 324.233 61.5316L318.118 69.4444C318.431 69.6859 318.631 69.9523 318.718 70.5872L328.625 69.2208ZM324.321 61.6018C321.853 59.6037 318.842 58.856 315.8 58.856V68.856C317.237 68.856 317.81 69.1963 318.03 69.3742L324.321 61.6018ZM315.8 58.856C313.312 58.856 310.61 59.3384 308.384 61.008L314.383 69.008C314.288 69.0796 314.294 69.0405 314.518 68.9821C314.75 68.9213 315.16 68.856 315.8 68.856V58.856ZM308.551 60.8878C306.122 62.5576 304.848 65.1166 304.848 67.984H314.848C314.848 68.0242 314.835 68.2625 314.675 68.5732C314.511 68.8896 314.305 69.067 314.216 69.1282L308.551 60.8878ZM304.848 67.984C304.848 69.6699 305.304 71.3588 306.341 72.852C307.349 74.3036 308.707 75.2868 310.084 75.9476L314.411 66.9324C314.188 66.8252 314.346 66.8484 314.554 67.148C314.657 67.2958 314.738 67.465 314.79 67.6377C314.84 67.8065 314.848 67.9307 314.848 67.984H304.848ZM310.152 75.9798C312.314 76.9778 315.297 77.837 318.843 78.6249L321.012 68.8631C317.646 68.115 315.509 67.4382 314.343 66.9002L310.152 75.9798ZM318.678 78.5854C322.526 79.5784 325.519 80.5365 327.726 81.4418L331.521 72.1902C328.736 71.0475 325.265 69.9576 321.177 68.9026L318.678 78.5854ZM327.829 81.4827C329.455 82.1083 330.943 83.1668 332.301 84.8061L340.002 78.4259C337.648 75.5852 334.784 73.4437 331.418 72.1493L327.829 81.4827ZM332.402 84.9241C333.337 85.9834 334.079 87.6707 334.128 90.5342L344.127 90.3618C344.048 85.8013 342.806 81.6006 339.901 78.3079L332.402 84.9241ZM334.128 90.448C334.128 92.5609 333.546 94.3524 332.378 95.98L340.501 101.812C342.917 98.4476 344.128 94.6071 344.128 90.448H334.128ZM332.364 96C331.276 97.5304 329.562 98.9278 326.907 100.051L330.804 109.261C334.805 107.568 338.147 105.126 340.515 101.792L332.364 96ZM326.875 100.065C324.36 101.15 321.251 101.768 317.432 101.768V111.768C322.316 111.768 326.823 110.978 330.836 109.247L326.875 100.065Z" fill="#2E6DB5" mask="url(#path-1-outside-1_141_8)"/>
</svg>
