<svg width="53" height="135" viewBox="0 0 53 135" fill="none" xmlns="http://www.w3.org/2000/svg">
<mask id="path-1-outside-1_200_8" maskUnits="userSpaceOnUse" x="1" y="34" width="52" height="80" fill="black">
<rect fill="white" x="1" y="34" width="52" height="80"/>
<path d="M20.832 108.96C15.264 108.96 12.48 106.72 12.48 102.24C12.48 97.696 15.264 95.424 20.832 95.424C26.272 95.424 28.992 97.696 28.992 102.24C28.992 106.72 26.272 108.96 20.832 108.96ZM17.856 88.224C17.856 85.92 17.888 84.064 17.952 82.656C18.08 81.184 18.272 80.032 18.528 79.2C18.848 78.304 19.232 77.536 19.68 76.896C20.384 76.064 21.28 75.296 22.368 74.592C23.456 73.888 24.8 73.184 26.4 72.48C28.896 71.264 30.816 70.176 32.16 69.216C33.504 68.192 34.432 67.2 34.944 66.24C35.456 65.28 35.712 64.288 35.712 63.264C35.712 61.984 35.328 60.896 34.56 60C33.792 59.104 32.672 58.4 31.2 57.888C29.728 57.376 27.936 57.12 25.824 57.12C22.944 57.12 20 57.344 16.992 57.792C13.984 58.24 10.56 59.008 6.72 60.096V41.952C10.432 41.12 13.792 40.576 16.8 40.32C19.808 40 22.4 39.84 24.576 39.84C29.184 39.84 33.184 40.48 36.576 41.76C40.032 42.976 42.688 44.832 44.544 47.328C46.464 49.824 47.424 52.992 47.424 56.832C47.424 59.392 46.88 61.664 45.792 63.648C44.768 65.632 43.392 67.392 41.664 68.928C39.936 70.464 38.048 71.808 36 72.96C33.952 74.112 31.936 75.136 29.952 76.032C28.8 76.544 27.712 77.088 26.688 77.664C25.728 78.24 25.056 78.848 24.672 79.488C24.352 79.872 24.096 80.384 23.904 81.024C23.712 81.6 23.584 82.464 23.52 83.616C23.456 84.704 23.424 86.24 23.424 88.224H17.856Z"/>
</mask>
<path d="M20.832 108.96C15.264 108.96 12.48 106.72 12.48 102.24C12.48 97.696 15.264 95.424 20.832 95.424C26.272 95.424 28.992 97.696 28.992 102.24C28.992 106.72 26.272 108.96 20.832 108.96ZM17.856 88.224C17.856 85.92 17.888 84.064 17.952 82.656C18.08 81.184 18.272 80.032 18.528 79.2C18.848 78.304 19.232 77.536 19.68 76.896C20.384 76.064 21.28 75.296 22.368 74.592C23.456 73.888 24.8 73.184 26.4 72.48C28.896 71.264 30.816 70.176 32.16 69.216C33.504 68.192 34.432 67.2 34.944 66.24C35.456 65.28 35.712 64.288 35.712 63.264C35.712 61.984 35.328 60.896 34.56 60C33.792 59.104 32.672 58.4 31.2 57.888C29.728 57.376 27.936 57.12 25.824 57.12C22.944 57.12 20 57.344 16.992 57.792C13.984 58.24 10.56 59.008 6.72 60.096V41.952C10.432 41.12 13.792 40.576 16.8 40.32C19.808 40 22.4 39.84 24.576 39.84C29.184 39.84 33.184 40.48 36.576 41.76C40.032 42.976 42.688 44.832 44.544 47.328C46.464 49.824 47.424 52.992 47.424 56.832C47.424 59.392 46.88 61.664 45.792 63.648C44.768 65.632 43.392 67.392 41.664 68.928C39.936 70.464 38.048 71.808 36 72.96C33.952 74.112 31.936 75.136 29.952 76.032C28.8 76.544 27.712 77.088 26.688 77.664C25.728 78.24 25.056 78.848 24.672 79.488C24.352 79.872 24.096 80.384 23.904 81.024C23.712 81.6 23.584 82.464 23.52 83.616C23.456 84.704 23.424 86.24 23.424 88.224H17.856Z" fill="#FFB610"/>
<path d="M17.856 88.224H12.856V93.224H17.856V88.224ZM17.952 82.656L12.9708 82.2229L12.9618 82.3258L12.9572 82.429L17.952 82.656ZM18.528 79.2L13.8193 77.5183L13.7818 77.6232L13.7491 77.7296L18.528 79.2ZM19.68 76.896L15.8631 73.6663L15.7152 73.8411L15.5838 74.0287L19.68 76.896ZM22.368 74.592L25.0843 78.7898L25.0843 78.7898L22.368 74.592ZM26.4 72.48L28.4137 77.0566L28.5026 77.0175L28.5898 76.9749L26.4 72.48ZM32.16 69.216L35.0662 73.2847L35.1289 73.2399L35.1902 73.1932L32.16 69.216ZM34.944 66.24L39.3558 68.5929L39.3558 68.5929L34.944 66.24ZM34.56 60L30.7637 63.254L30.7637 63.254L34.56 60ZM16.992 57.792L17.7286 62.7375L17.7286 62.7375L16.992 57.792ZM6.72 60.096H1.72V66.7095L8.08301 64.9066L6.72 60.096ZM6.72 41.952L5.62644 37.0731L1.72 37.9486V41.952H6.72ZM16.8 40.32L17.224 45.302L17.2765 45.2975L17.3289 45.2919L16.8 40.32ZM36.576 41.76L34.8107 46.438L34.8634 46.4579L34.9165 46.4766L36.576 41.76ZM44.544 47.328L40.5317 50.3115L40.556 50.3442L40.5809 50.3766L44.544 47.328ZM45.792 63.648L41.4079 61.2438L41.3777 61.2989L41.3489 61.3548L45.792 63.648ZM41.664 68.928L44.9858 72.665L44.9858 72.665L41.664 68.928ZM36 72.96L38.4513 77.3179L38.4513 77.3179L36 72.96ZM29.952 76.032L31.9827 80.6011L31.9963 80.595L32.0099 80.5889L29.952 76.032ZM26.688 77.664L24.2367 73.3061L24.1756 73.3405L24.1155 73.3765L26.688 77.664ZM24.672 79.488L28.5131 82.6889L28.7606 82.392L28.9595 82.0605L24.672 79.488ZM23.904 81.024L28.6474 82.6051L28.6714 82.5333L28.6931 82.4607L23.904 81.024ZM23.52 83.616L28.5114 83.9096L28.5119 83.9015L28.5123 83.8933L23.52 83.616ZM23.424 88.224V93.224H28.424V88.224H23.424ZM20.832 103.96C18.5873 103.96 17.8299 103.487 17.7024 103.384C17.6718 103.36 17.6543 103.346 17.6213 103.266C17.5756 103.156 17.48 102.851 17.48 102.24H7.48C7.48 105.574 8.56938 108.871 11.4336 111.176C14.0901 113.313 17.5088 113.96 20.832 113.96V103.96ZM17.48 102.24C17.48 101.605 17.578 101.278 17.6308 101.149C17.671 101.05 17.6967 101.028 17.7293 101.002C17.8542 100.9 18.5999 100.424 20.832 100.424V90.424C17.4961 90.424 14.0658 91.0841 11.4067 93.2542C8.55305 95.5831 7.48 98.8985 7.48 102.24H17.48ZM20.832 100.424C22.9786 100.424 23.6575 100.891 23.7466 100.965C23.767 100.982 23.7943 101.001 23.8381 101.111C23.8941 101.252 23.992 101.592 23.992 102.24H33.992C33.992 98.9372 32.9606 95.6321 30.1574 93.2906C27.5265 91.0931 24.1254 90.424 20.832 90.424V100.424ZM23.992 102.24C23.992 102.864 23.8964 103.183 23.8473 103.304C23.8105 103.395 23.7914 103.406 23.7735 103.42C23.6822 103.496 22.9918 103.96 20.832 103.96V113.96C24.1122 113.96 27.5018 113.304 30.1305 111.14C32.9451 108.822 33.992 105.534 33.992 102.24H23.992ZM22.856 88.224C22.856 85.9548 22.8877 84.1833 22.9468 82.883L12.9572 82.429C12.8883 83.9447 12.856 85.8852 12.856 88.224H22.856ZM22.9332 83.0891C23.0486 81.7619 23.2019 81.0115 23.3069 80.6704L13.7491 77.7296C13.3421 79.0525 13.1114 80.6061 12.9708 82.2229L22.9332 83.0891ZM23.2367 80.8817C23.4378 80.3186 23.6329 79.9679 23.7762 79.7633L15.5838 74.0287C14.8311 75.1041 14.2582 76.2894 13.8193 77.5183L23.2367 80.8817ZM23.4969 80.1257C23.8303 79.7317 24.3332 79.2758 25.0843 78.7898L19.6517 70.3941C18.2268 71.3162 16.9377 72.3963 15.8631 73.6663L23.4969 80.1257ZM25.0843 78.7898C25.8867 78.2706 26.9794 77.6877 28.4137 77.0566L24.3863 67.9034C22.6206 68.6803 21.0253 69.5054 19.6517 70.3941L25.0843 78.7898ZM28.5898 76.9749C31.1921 75.7072 33.3947 74.4786 35.0662 73.2847L29.2538 65.1473C28.2373 65.8734 26.5999 66.8208 24.2102 67.9851L28.5898 76.9749ZM35.1902 73.1932C36.8221 71.9498 38.3702 70.4409 39.3558 68.5929L30.5322 63.8871C30.4938 63.9591 30.1859 64.4342 29.1298 65.2388L35.1902 73.1932ZM39.3558 68.5929C40.2291 66.9554 40.712 65.16 40.712 63.264H30.712C30.712 63.416 30.6829 63.6046 30.5322 63.8871L39.3558 68.5929ZM40.712 63.264C40.712 60.8994 39.9691 58.6277 38.3563 56.746L30.7637 63.254C30.7639 63.2542 30.7612 63.2511 30.7567 63.2447C30.7521 63.2382 30.7463 63.2295 30.7401 63.2187C30.7267 63.1957 30.7161 63.1721 30.709 63.1521C30.7021 63.1325 30.7023 63.1267 30.7045 63.1404C30.7068 63.1547 30.712 63.1943 30.712 63.264H40.712ZM38.3563 56.746C36.8569 54.9968 34.8898 53.8776 32.8426 53.1655L29.5574 62.6105C30.4542 62.9224 30.7271 63.2112 30.7637 63.254L38.3563 56.746ZM32.8426 53.1655C30.6921 52.4175 28.31 52.12 25.824 52.12V62.12C27.562 62.12 28.7639 62.3345 29.5574 62.6105L32.8426 53.1655ZM25.824 52.12C22.6842 52.12 19.4938 52.3642 16.2554 52.8465L17.7286 62.7375C20.5062 62.3238 23.2038 62.12 25.824 62.12V52.12ZM16.2554 52.8465C12.9825 53.334 9.34319 54.1559 5.35699 55.2854L8.08301 64.9066C11.7768 63.8601 14.9855 63.146 17.7286 62.7375L16.2554 52.8465ZM11.72 60.096V41.952H1.72V60.096H11.72ZM7.81356 46.8309C11.3588 46.0363 14.4903 45.5346 17.224 45.302L16.376 35.338C13.0937 35.6174 9.50516 36.2037 5.62644 37.0731L7.81356 46.8309ZM17.3289 45.2919C20.2234 44.984 22.6298 44.84 24.576 44.84V34.84C22.1702 34.84 19.3926 35.016 16.2711 35.3481L17.3289 45.2919ZM24.576 44.84C28.7372 44.84 32.1127 45.4199 34.8107 46.438L38.3413 37.082C34.2553 35.5401 29.6308 34.84 24.576 34.84V44.84ZM34.9165 46.4766C37.6039 47.4221 39.3694 48.7484 40.5317 50.3115L48.5563 44.3445C46.0066 40.9155 42.4601 38.5299 38.2355 37.0434L34.9165 46.4766ZM40.5809 50.3766C41.6914 51.8202 42.424 53.8464 42.424 56.832H52.424C52.424 52.1376 51.2366 47.8278 48.5071 44.2794L40.5809 50.3766ZM42.424 56.832C42.424 58.6636 42.0412 60.0891 41.4079 61.2438L50.1761 66.0522C51.7188 63.2389 52.424 60.1204 52.424 56.832H42.424ZM41.3489 61.3548C40.6168 62.7733 39.6275 64.0485 38.3422 65.191L44.9858 72.665C47.1565 70.7355 48.9192 68.4907 50.2351 65.9412L41.3489 61.3548ZM38.3422 65.191C36.8857 66.4856 35.2903 67.6225 33.5487 68.6021L38.4513 77.3179C40.8057 75.9935 42.9863 74.4424 44.9858 72.665L38.3422 65.191ZM33.5487 68.6021C31.6188 69.6877 29.734 70.6442 27.8941 71.4751L32.0099 80.5889C34.138 79.6278 36.2852 78.5363 38.4513 77.3179L33.5487 68.6021ZM27.9213 71.4629C26.6362 72.0341 25.407 72.6478 24.2367 73.3061L29.1393 82.0219C30.017 81.5282 30.9638 81.0539 31.9827 80.6011L27.9213 71.4629ZM24.1155 73.3765C22.7754 74.1806 21.3497 75.3069 20.3845 76.9155L28.9595 82.0605C28.8507 82.2418 28.7725 82.3014 28.8186 82.2597C28.8649 82.2178 28.9971 82.1095 29.2605 81.9515L24.1155 73.3765ZM20.8309 76.2871C19.9601 77.332 19.4389 78.507 19.1149 79.5873L28.6931 82.4607C28.7199 82.3714 28.7317 82.3569 28.7121 82.3961C28.6921 82.4362 28.6326 82.5456 28.5131 82.6889L20.8309 76.2871ZM19.1606 79.4429C18.7534 80.6644 18.5984 82.0651 18.5277 83.3386L28.5123 83.8933C28.5383 83.4246 28.5742 83.0788 28.61 82.8367C28.6482 82.5793 28.6739 82.5258 28.6474 82.6051L19.1606 79.4429ZM18.5286 83.3224C18.456 84.5568 18.424 86.2074 18.424 88.224H28.424C28.424 86.2726 28.456 84.8512 28.5114 83.9096L18.5286 83.3224ZM23.424 83.224H17.856V93.224H23.424V83.224Z" fill="#2E6DB5" mask="url(#path-1-outside-1_200_8)"/>
</svg>
