<svg width="914" height="36" viewBox="0 0 914 36" fill="none" xmlns="http://www.w3.org/2000/svg">
<mask id="path-1-outside-1_52_6" maskUnits="userSpaceOnUse" x="-1" y="2" width="98" height="27" fill="black">
<rect fill="white" x="-1" y="2" width="98" height="27"/>
<path d="M14.328 14.576C14.328 15.552 14.104 16.448 13.656 17.264C13.208 18.064 12.52 18.712 11.592 19.208C10.664 19.704 9.512 19.952 8.136 19.952H5.592V26H1.488V9.152H8.136C9.48 9.152 10.616 9.384 11.544 9.848C12.472 10.312 13.168 10.952 13.632 11.768C14.096 12.584 14.328 13.52 14.328 14.576ZM7.824 16.688C8.608 16.688 9.192 16.504 9.576 16.136C9.96 15.768 10.152 15.248 10.152 14.576C10.152 13.904 9.96 13.384 9.576 13.016C9.192 12.648 8.608 12.464 7.824 12.464H5.592V16.688H7.824ZM22.5606 26.192C21.2486 26.192 20.0646 25.912 19.0086 25.352C17.9686 24.792 17.1446 23.992 16.5366 22.952C15.9446 21.912 15.6486 20.696 15.6486 19.304C15.6486 17.928 15.9526 16.72 16.5606 15.68C17.1686 14.624 18.0006 13.816 19.0566 13.256C20.1126 12.696 21.2966 12.416 22.6086 12.416C23.9206 12.416 25.1046 12.696 26.1606 13.256C27.2166 13.816 28.0486 14.624 28.6566 15.68C29.2646 16.72 29.5686 17.928 29.5686 19.304C29.5686 20.68 29.2566 21.896 28.6326 22.952C28.0246 23.992 27.1846 24.792 26.1126 25.352C25.0566 25.912 23.8726 26.192 22.5606 26.192ZM22.5606 22.64C23.3446 22.64 24.0086 22.352 24.5526 21.776C25.1126 21.2 25.3926 20.376 25.3926 19.304C25.3926 18.232 25.1206 17.408 24.5766 16.832C24.0486 16.256 23.3926 15.968 22.6086 15.968C21.8086 15.968 21.1446 16.256 20.6166 16.832C20.0886 17.392 19.8246 18.216 19.8246 19.304C19.8246 20.376 20.0806 21.2 20.5926 21.776C21.1206 22.352 21.7766 22.64 22.5606 22.64ZM39.9298 26L35.8498 20.384V26H31.7458V8.24H35.8498V18.056L39.9058 12.608H44.9698L39.4018 19.328L45.0178 26H39.9298ZM59.2057 19.088C59.2057 19.472 59.1818 19.872 59.1338 20.288H49.8458C49.9098 21.12 50.1738 21.76 50.6378 22.208C51.1178 22.64 51.7018 22.856 52.3898 22.856C53.4138 22.856 54.1258 22.424 54.5258 21.56H58.8938C58.6698 22.44 58.2618 23.232 57.6698 23.936C57.0938 24.64 56.3658 25.192 55.4858 25.592C54.6058 25.992 53.6218 26.192 52.5338 26.192C51.2218 26.192 50.0538 25.912 49.0298 25.352C48.0058 24.792 47.2058 23.992 46.6298 22.952C46.0538 21.912 45.7658 20.696 45.7658 19.304C45.7658 17.912 46.0458 16.696 46.6058 15.656C47.1818 14.616 47.9818 13.816 49.0058 13.256C50.0298 12.696 51.2058 12.416 52.5338 12.416C53.8298 12.416 54.9818 12.688 55.9898 13.232C56.9978 13.776 57.7818 14.552 58.3418 15.56C58.9178 16.568 59.2057 17.744 59.2057 19.088ZM55.0058 18.008C55.0058 17.304 54.7658 16.744 54.2858 16.328C53.8058 15.912 53.2058 15.704 52.4858 15.704C51.7978 15.704 51.2138 15.904 50.7338 16.304C50.2698 16.704 49.9818 17.272 49.8698 18.008H55.0058ZM55.2938 9.176L49.5098 11.6V8.768L55.2938 5.984V9.176ZM65.4748 22.832H70.8508V26H61.3708V9.152H65.4748V22.832ZM74.8723 11.216C74.1523 11.216 73.5603 11.008 73.0963 10.592C72.6483 10.16 72.4243 9.632 72.4243 9.008C72.4243 8.368 72.6483 7.84 73.0963 7.424C73.5603 6.992 74.1523 6.776 74.8723 6.776C75.5763 6.776 76.1523 6.992 76.6003 7.424C77.0643 7.84 77.2963 8.368 77.2963 9.008C77.2963 9.632 77.0643 10.16 76.6003 10.592C76.1523 11.008 75.5763 11.216 74.8723 11.216ZM76.9123 12.608V26H72.8083V12.608H76.9123ZM83.9904 14.504C84.3744 13.88 84.9264 13.376 85.6464 12.992C86.3664 12.608 87.1904 12.416 88.1184 12.416C89.2224 12.416 90.2224 12.696 91.1184 13.256C92.0144 13.816 92.7184 14.616 93.2304 15.656C93.7584 16.696 94.0224 17.904 94.0224 19.28C94.0224 20.656 93.7584 21.872 93.2304 22.928C92.7184 23.968 92.0144 24.776 91.1184 25.352C90.2224 25.912 89.2224 26.192 88.1184 26.192C87.1744 26.192 86.3504 26.008 85.6464 25.64C84.9424 25.256 84.3904 24.752 83.9904 24.128V26H79.8864V8.24H83.9904V14.504ZM89.8464 19.28C89.8464 18.256 89.5584 17.456 88.9824 16.88C88.4224 16.288 87.7264 15.992 86.8944 15.992C86.0784 15.992 85.3824 16.288 84.8064 16.88C84.2464 17.472 83.9664 18.28 83.9664 19.304C83.9664 20.328 84.2464 21.136 84.8064 21.728C85.3824 22.32 86.0784 22.616 86.8944 22.616C87.7104 22.616 88.4064 22.32 88.9824 21.728C89.5584 21.12 89.8464 20.304 89.8464 19.28Z"/>
</mask>
<path d="M14.328 14.576C14.328 15.552 14.104 16.448 13.656 17.264C13.208 18.064 12.52 18.712 11.592 19.208C10.664 19.704 9.512 19.952 8.136 19.952H5.592V26H1.488V9.152H8.136C9.48 9.152 10.616 9.384 11.544 9.848C12.472 10.312 13.168 10.952 13.632 11.768C14.096 12.584 14.328 13.52 14.328 14.576ZM7.824 16.688C8.608 16.688 9.192 16.504 9.576 16.136C9.96 15.768 10.152 15.248 10.152 14.576C10.152 13.904 9.96 13.384 9.576 13.016C9.192 12.648 8.608 12.464 7.824 12.464H5.592V16.688H7.824ZM22.5606 26.192C21.2486 26.192 20.0646 25.912 19.0086 25.352C17.9686 24.792 17.1446 23.992 16.5366 22.952C15.9446 21.912 15.6486 20.696 15.6486 19.304C15.6486 17.928 15.9526 16.72 16.5606 15.68C17.1686 14.624 18.0006 13.816 19.0566 13.256C20.1126 12.696 21.2966 12.416 22.6086 12.416C23.9206 12.416 25.1046 12.696 26.1606 13.256C27.2166 13.816 28.0486 14.624 28.6566 15.68C29.2646 16.72 29.5686 17.928 29.5686 19.304C29.5686 20.68 29.2566 21.896 28.6326 22.952C28.0246 23.992 27.1846 24.792 26.1126 25.352C25.0566 25.912 23.8726 26.192 22.5606 26.192ZM22.5606 22.64C23.3446 22.64 24.0086 22.352 24.5526 21.776C25.1126 21.2 25.3926 20.376 25.3926 19.304C25.3926 18.232 25.1206 17.408 24.5766 16.832C24.0486 16.256 23.3926 15.968 22.6086 15.968C21.8086 15.968 21.1446 16.256 20.6166 16.832C20.0886 17.392 19.8246 18.216 19.8246 19.304C19.8246 20.376 20.0806 21.2 20.5926 21.776C21.1206 22.352 21.7766 22.64 22.5606 22.64ZM39.9298 26L35.8498 20.384V26H31.7458V8.24H35.8498V18.056L39.9058 12.608H44.9698L39.4018 19.328L45.0178 26H39.9298ZM59.2057 19.088C59.2057 19.472 59.1818 19.872 59.1338 20.288H49.8458C49.9098 21.12 50.1738 21.76 50.6378 22.208C51.1178 22.64 51.7018 22.856 52.3898 22.856C53.4138 22.856 54.1258 22.424 54.5258 21.56H58.8938C58.6698 22.44 58.2618 23.232 57.6698 23.936C57.0938 24.64 56.3658 25.192 55.4858 25.592C54.6058 25.992 53.6218 26.192 52.5338 26.192C51.2218 26.192 50.0538 25.912 49.0298 25.352C48.0058 24.792 47.2058 23.992 46.6298 22.952C46.0538 21.912 45.7658 20.696 45.7658 19.304C45.7658 17.912 46.0458 16.696 46.6058 15.656C47.1818 14.616 47.9818 13.816 49.0058 13.256C50.0298 12.696 51.2058 12.416 52.5338 12.416C53.8298 12.416 54.9818 12.688 55.9898 13.232C56.9978 13.776 57.7818 14.552 58.3418 15.56C58.9178 16.568 59.2057 17.744 59.2057 19.088ZM55.0058 18.008C55.0058 17.304 54.7658 16.744 54.2858 16.328C53.8058 15.912 53.2058 15.704 52.4858 15.704C51.7978 15.704 51.2138 15.904 50.7338 16.304C50.2698 16.704 49.9818 17.272 49.8698 18.008H55.0058ZM55.2938 9.176L49.5098 11.6V8.768L55.2938 5.984V9.176ZM65.4748 22.832H70.8508V26H61.3708V9.152H65.4748V22.832ZM74.8723 11.216C74.1523 11.216 73.5603 11.008 73.0963 10.592C72.6483 10.16 72.4243 9.632 72.4243 9.008C72.4243 8.368 72.6483 7.84 73.0963 7.424C73.5603 6.992 74.1523 6.776 74.8723 6.776C75.5763 6.776 76.1523 6.992 76.6003 7.424C77.0643 7.84 77.2963 8.368 77.2963 9.008C77.2963 9.632 77.0643 10.16 76.6003 10.592C76.1523 11.008 75.5763 11.216 74.8723 11.216ZM76.9123 12.608V26H72.8083V12.608H76.9123ZM83.9904 14.504C84.3744 13.88 84.9264 13.376 85.6464 12.992C86.3664 12.608 87.1904 12.416 88.1184 12.416C89.2224 12.416 90.2224 12.696 91.1184 13.256C92.0144 13.816 92.7184 14.616 93.2304 15.656C93.7584 16.696 94.0224 17.904 94.0224 19.28C94.0224 20.656 93.7584 21.872 93.2304 22.928C92.7184 23.968 92.0144 24.776 91.1184 25.352C90.2224 25.912 89.2224 26.192 88.1184 26.192C87.1744 26.192 86.3504 26.008 85.6464 25.64C84.9424 25.256 84.3904 24.752 83.9904 24.128V26H79.8864V8.24H83.9904V14.504ZM89.8464 19.28C89.8464 18.256 89.5584 17.456 88.9824 16.88C88.4224 16.288 87.7264 15.992 86.8944 15.992C86.0784 15.992 85.3824 16.288 84.8064 16.88C84.2464 17.472 83.9664 18.28 83.9664 19.304C83.9664 20.328 84.2464 21.136 84.8064 21.728C85.3824 22.32 86.0784 22.616 86.8944 22.616C87.7104 22.616 88.4064 22.32 88.9824 21.728C89.5584 21.12 89.8464 20.304 89.8464 19.28Z" fill="#FFB610"/>
<path d="M13.656 17.264L15.401 18.2412L15.4051 18.2339L15.4092 18.2265L13.656 17.264ZM11.592 19.208L10.6492 17.4441L10.6492 17.4441L11.592 19.208ZM5.592 19.952V17.952H3.592V19.952H5.592ZM5.592 26V28H7.592V26H5.592ZM1.488 26H-0.512V28H1.488V26ZM1.488 9.152V7.152H-0.512V9.152H1.488ZM11.544 9.848L12.4384 8.05914L12.4384 8.05914L11.544 9.848ZM5.592 12.464V10.464H3.592V12.464H5.592ZM5.592 16.688H3.592V18.688H5.592V16.688ZM12.328 14.576C12.328 15.2324 12.181 15.7949 11.9028 16.3015L15.4092 18.2265C16.027 17.1011 16.328 15.8716 16.328 14.576H12.328ZM11.911 16.2868C11.6761 16.7062 11.2911 17.1011 10.6492 17.4441L12.5348 20.9719C13.7489 20.3229 14.7399 19.4218 15.401 18.2412L11.911 16.2868ZM10.6492 17.4441C10.0868 17.7447 9.28099 17.952 8.136 17.952V21.952C9.74301 21.952 11.2412 21.6633 12.5348 20.9719L10.6492 17.4441ZM8.136 17.952H5.592V21.952H8.136V17.952ZM3.592 19.952V26H7.592V19.952H3.592ZM5.592 24H1.488V28H5.592V24ZM3.488 26V9.152H-0.512V26H3.488ZM1.488 11.152H8.136V7.152H1.488V11.152ZM8.136 11.152C9.25806 11.152 10.0689 11.3465 10.6496 11.6369L12.4384 8.05914C11.1631 7.42148 9.70194 7.152 8.136 7.152V11.152ZM10.6496 11.6369C11.262 11.943 11.6457 12.321 11.8934 12.7566L15.3706 10.7794C14.6903 9.583 13.682 8.68095 12.4384 8.05914L10.6496 11.6369ZM11.8934 12.7566C12.1655 13.2351 12.328 13.8225 12.328 14.576H16.328C16.328 13.2175 16.0265 11.9329 15.3706 10.7794L11.8934 12.7566ZM7.824 18.688C8.88199 18.688 10.0594 18.4428 10.9598 17.58L8.19219 14.692C8.25336 14.6334 8.2923 14.6288 8.24899 14.6424C8.19711 14.6588 8.06628 14.688 7.824 14.688V18.688ZM10.9598 17.58C11.8352 16.741 12.152 15.641 12.152 14.576H8.152C8.152 14.7243 8.1306 14.7805 8.13181 14.7773C8.13264 14.775 8.13784 14.762 8.15008 14.7431C8.16249 14.724 8.17732 14.7063 8.19219 14.692L10.9598 17.58ZM12.152 14.576C12.152 13.511 11.8352 12.411 10.9598 11.572L8.19219 14.46C8.17732 14.4457 8.16249 14.428 8.15008 14.4089C8.13784 14.39 8.13264 14.377 8.13181 14.3747C8.1306 14.3715 8.152 14.4277 8.152 14.576H12.152ZM10.9598 11.572C10.0594 10.7092 8.88199 10.464 7.824 10.464V14.464C8.06628 14.464 8.19711 14.4932 8.24899 14.5096C8.2923 14.5232 8.25336 14.5186 8.19219 14.46L10.9598 11.572ZM7.824 10.464H5.592V14.464H7.824V10.464ZM3.592 12.464V16.688H7.592V12.464H3.592ZM5.592 18.688H7.824V14.688H5.592V18.688ZM19.0086 25.352L18.0603 27.113L18.0716 27.1189L19.0086 25.352ZM16.5366 22.952L14.7984 23.9414L14.8041 23.9514L14.81 23.9614L16.5366 22.952ZM16.5606 15.68L18.2872 16.6894L18.2938 16.6779L16.5606 15.68ZM19.0566 13.256L19.9936 15.0229L19.9936 15.0229L19.0566 13.256ZM26.1606 13.256L25.2236 15.0229L25.2236 15.0229L26.1606 13.256ZM28.6566 15.68L26.9233 16.678L26.93 16.6894L28.6566 15.68ZM28.6326 22.952L26.9107 21.9345L26.906 21.9426L28.6326 22.952ZM26.1126 25.352L25.1865 23.5793L25.1756 23.5851L26.1126 25.352ZM24.5526 21.776L23.1186 20.3818L23.1085 20.3922L23.0985 20.4028L24.5526 21.776ZM24.5766 16.832L23.1023 18.1834L23.1123 18.1944L23.1225 18.2052L24.5766 16.832ZM20.6166 16.832L22.0717 18.204L22.0814 18.1938L22.0909 18.1834L20.6166 16.832ZM20.5926 21.776L19.0977 23.1047L19.1079 23.1162L19.1183 23.1274L20.5926 21.776ZM22.5606 24.192C21.5427 24.192 20.6855 23.9775 19.9456 23.5851L18.0716 27.1189C19.4436 27.8465 20.9544 28.192 22.5606 28.192V24.192ZM19.9568 23.5911C19.2471 23.2089 18.6896 22.672 18.2632 21.9426L14.81 23.9614C15.5996 25.312 16.6901 26.3751 18.0604 27.1129L19.9568 23.5911ZM18.2747 21.9626C17.8805 21.2702 17.6486 20.4062 17.6486 19.304H13.6486C13.6486 20.9858 14.0086 22.5538 14.7984 23.9414L18.2747 21.9626ZM17.6486 19.304C17.6486 18.2314 17.8824 17.3817 18.2872 16.6894L14.834 14.6706C14.0227 16.0583 13.6486 17.6246 13.6486 19.304H17.6486ZM18.2938 16.6779C18.7179 15.9414 19.2768 15.403 19.9936 15.0229L18.1196 11.4891C16.7243 12.229 15.6192 13.3066 14.8273 14.6821L18.2938 16.6779ZM19.9936 15.0229C20.7335 14.6305 21.5907 14.416 22.6086 14.416V10.416C21.0024 10.416 19.4916 10.7615 18.1196 11.4891L19.9936 15.0229ZM22.6086 14.416C23.6264 14.416 24.4836 14.6305 25.2236 15.0229L27.0976 11.4891C25.7255 10.7615 24.2147 10.416 22.6086 10.416V14.416ZM25.2236 15.0229C25.9403 15.403 26.4992 15.9414 26.9233 16.6779L30.3898 14.6821C29.5979 13.3066 28.4928 12.229 27.0976 11.4891L25.2236 15.0229ZM26.93 16.6894C27.3347 17.3817 27.5686 18.2314 27.5686 19.304H31.5686C31.5686 17.6246 31.1944 16.0583 30.3832 14.6706L26.93 16.6894ZM27.5686 19.304C27.5686 20.3667 27.3312 21.223 26.9107 21.9345L30.3544 23.9695C31.1819 22.569 31.5686 20.9933 31.5686 19.304H27.5686ZM26.906 21.9426C26.4886 22.6566 25.9266 23.1927 25.1865 23.5793L27.0386 27.1247C28.4425 26.3913 29.5606 25.3274 30.3592 23.9614L26.906 21.9426ZM25.1756 23.5851C24.4356 23.9775 23.5784 24.192 22.5606 24.192V28.192C24.1667 28.192 25.6775 27.8465 27.0496 27.1189L25.1756 23.5851ZM22.5606 24.64C23.9014 24.64 25.0893 24.1205 26.0066 23.1492L23.0985 20.4028C22.9278 20.5835 22.7877 20.64 22.5606 20.64V24.64ZM25.9866 23.1702C27.0177 22.1096 27.3926 20.7176 27.3926 19.304H23.3926C23.3926 20.0344 23.2075 20.2904 23.1186 20.3818L25.9866 23.1702ZM27.3926 19.304C27.3926 17.905 27.0338 16.5209 26.0306 15.4588L23.1225 18.2052C23.2074 18.2951 23.3926 18.559 23.3926 19.304H27.3926ZM26.0509 15.4805C25.1426 14.4897 23.951 13.968 22.6086 13.968V17.968C22.8341 17.968 22.9545 18.0223 23.1023 18.1834L26.0509 15.4805ZM22.6086 13.968C21.2631 13.968 20.0592 14.4802 19.1423 15.4805L22.0909 18.1834C22.2299 18.0318 22.354 17.968 22.6086 17.968V13.968ZM19.1614 15.46C18.1613 16.5207 17.8246 17.9174 17.8246 19.304H21.8246C21.8246 18.5146 22.0159 18.2633 22.0717 18.204L19.1614 15.46ZM17.8246 19.304C17.8246 20.6743 18.1523 22.0411 19.0977 23.1047L22.0874 20.4473C22.0088 20.3589 21.8246 20.0777 21.8246 19.304H17.8246ZM19.1183 23.1274C20.0265 24.1183 21.2181 24.64 22.5606 24.64V20.64C22.335 20.64 22.2146 20.5857 22.0669 20.4246L19.1183 23.1274ZM39.9298 26L38.3117 27.1755L38.9107 28H39.9298V26ZM35.8498 20.384L37.4679 19.2085L33.8498 14.2283V20.384H35.8498ZM35.8498 26V28H37.8498V26H35.8498ZM31.7458 26H29.7458V28H31.7458V26ZM31.7458 8.24V6.24H29.7458V8.24H31.7458ZM35.8498 8.24H37.8498V6.24H35.8498V8.24ZM35.8498 18.056H33.8498V24.0915L37.454 19.2503L35.8498 18.056ZM39.9058 12.608V10.608H38.9014L38.3016 11.4137L39.9058 12.608ZM44.9698 12.608L46.5099 13.884L49.2243 10.608H44.9698V12.608ZM39.4018 19.328L37.8618 18.052L36.7961 19.3381L37.8717 20.6159L39.4018 19.328ZM45.0178 26V28H49.3155L46.5479 24.7121L45.0178 26ZM41.5479 24.8245L37.4679 19.2085L34.2317 21.5595L38.3117 27.1755L41.5479 24.8245ZM33.8498 20.384V26H37.8498V20.384H33.8498ZM35.8498 24H31.7458V28H35.8498V24ZM33.7458 26V8.24H29.7458V26H33.7458ZM31.7458 10.24H35.8498V6.24H31.7458V10.24ZM33.8498 8.24V18.056H37.8498V8.24H33.8498ZM37.454 19.2503L41.51 13.8023L38.3016 11.4137L34.2456 16.8617L37.454 19.2503ZM39.9058 14.608H44.9698V10.608H39.9058V14.608ZM43.4298 11.332L37.8618 18.052L40.9419 20.604L46.5099 13.884L43.4298 11.332ZM37.8717 20.6159L43.4877 27.2879L46.5479 24.7121L40.9319 18.0401L37.8717 20.6159ZM45.0178 24H39.9298V28H45.0178V24ZM59.1338 20.288V22.288H60.9163L61.1206 20.5172L59.1338 20.288ZM49.8458 20.288V18.288H47.686L47.8516 20.4414L49.8458 20.288ZM50.6378 22.208L49.2486 23.6468L49.2738 23.6711L49.2998 23.6946L50.6378 22.208ZM54.5258 21.56V19.56H53.2477L52.7108 20.7198L54.5258 21.56ZM58.8938 21.56L60.8319 22.0534L61.4666 19.56H58.8938V21.56ZM57.6698 23.936L56.139 22.6488L56.1304 22.6591L56.1218 22.6695L57.6698 23.936ZM55.4858 25.592L56.3134 27.4127L55.4858 25.592ZM49.0298 25.352L48.0701 27.1067L48.0701 27.1067L49.0298 25.352ZM46.6298 22.952L48.3793 21.983L48.3793 21.983L46.6298 22.952ZM46.6058 15.656L44.8562 14.687L44.8504 14.6974L44.8448 14.7078L46.6058 15.656ZM49.0058 13.256L49.9654 15.0107L49.9654 15.0107L49.0058 13.256ZM55.9898 13.232L55.0399 14.992L55.0399 14.992L55.9898 13.232ZM58.3418 15.56L56.5934 16.5313L56.5993 16.5418L56.6053 16.5523L58.3418 15.56ZM55.0058 18.008V20.008H57.0058V18.008H55.0058ZM54.2858 16.328L55.5956 14.8166L55.5956 14.8166L54.2858 16.328ZM50.7338 16.304L49.4534 14.7676L49.4405 14.7783L49.4279 14.7892L50.7338 16.304ZM49.8698 18.008L47.8925 17.7071L47.5424 20.008H49.8698V18.008ZM55.2938 9.176L56.0668 11.0206L57.2938 10.5064V9.176H55.2938ZM49.5098 11.6H47.5098V14.6067L50.2828 13.4446L49.5098 11.6ZM49.5098 8.768L48.6423 6.96589L47.5098 7.51104V8.768H49.5098ZM55.2938 5.984H57.2938V2.80172L54.4263 4.18189L55.2938 5.984ZM57.2057 19.088C57.2057 19.3889 57.1869 19.7121 57.1469 20.0588L61.1206 20.5172C61.1766 20.0319 61.2057 19.5551 61.2057 19.088H57.2057ZM59.1338 18.288H49.8458V22.288H59.1338V18.288ZM47.8516 20.4414C47.9419 21.6144 48.3391 22.7687 49.2486 23.6468L52.0269 20.7692C52.0084 20.7513 51.8776 20.6256 51.8399 20.1346L47.8516 20.4414ZM49.2998 23.6946C50.1725 24.48 51.2429 24.856 52.3898 24.856V20.856C52.1606 20.856 52.063 20.8 51.9757 20.7214L49.2998 23.6946ZM52.3898 24.856C53.1838 24.856 53.9958 24.6869 54.7292 24.2419C55.472 23.7912 55.9984 23.1397 56.3407 22.4002L52.7108 20.7198C52.6794 20.7877 52.6557 20.8173 52.6494 20.8246C52.6445 20.8304 52.6471 20.8265 52.6543 20.8221C52.6757 20.8091 52.6197 20.856 52.3898 20.856V24.856ZM54.5258 23.56H58.8938V19.56H54.5258V23.56ZM56.9556 21.0666C56.8069 21.6508 56.5398 22.1723 56.139 22.6488L59.2005 25.2232C59.9837 24.2917 60.5326 23.2292 60.8319 22.0534L56.9556 21.0666ZM56.1218 22.6695C55.7523 23.1211 55.2766 23.4901 54.6581 23.7713L56.3134 27.4127C57.4549 26.8939 58.4352 26.1589 59.2177 25.2025L56.1218 22.6695ZM54.6581 23.7713C54.0689 24.0391 53.3722 24.192 52.5338 24.192V28.192C53.8713 28.192 55.1426 27.9449 56.3134 27.4127L54.6581 23.7713ZM52.5338 24.192C51.5148 24.192 50.6841 23.9772 49.9894 23.5973L48.0701 27.1067C49.4234 27.8468 50.9287 28.192 52.5338 28.192V24.192ZM49.9894 23.5973C49.3043 23.2226 48.7754 22.6981 48.3793 21.983L44.8802 23.921C45.6361 25.2859 46.7072 26.3614 48.0701 27.1067L49.9894 23.5973ZM48.3793 21.983C47.9937 21.2866 47.7658 20.4152 47.7658 19.304H43.7658C43.7658 20.9768 44.1138 22.5374 44.8802 23.921L48.3793 21.983ZM47.7658 19.304C47.7658 18.1839 47.9894 17.3048 48.3667 16.6042L44.8448 14.7078C44.1021 16.0872 43.7658 17.6401 43.7658 19.304H47.7658ZM48.3553 16.625C48.7514 15.9099 49.2803 15.3854 49.9654 15.0107L48.0461 11.5013C46.6832 12.2466 45.6121 13.3221 44.8562 14.687L48.3553 16.625ZM49.9654 15.0107C50.6566 14.6327 51.4943 14.416 52.5338 14.416V10.416C50.9172 10.416 49.4029 10.7593 48.0461 11.5013L49.9654 15.0107ZM52.5338 14.416C53.5423 14.416 54.3603 14.6253 55.0399 14.992L56.9396 11.472C55.6032 10.7507 54.1172 10.416 52.5338 10.416V14.416ZM55.0399 14.992C55.7095 15.3534 56.2175 15.8546 56.5934 16.5313L60.0901 14.5887C59.346 13.2494 58.286 12.1986 56.9396 11.472L55.0399 14.992ZM56.6053 16.5523C56.983 17.2133 57.2057 18.0366 57.2057 19.088H61.2057C61.2057 17.4514 60.8525 15.9227 60.0782 14.5677L56.6053 16.5523ZM57.0058 18.008C57.0058 16.7945 56.5646 15.6564 55.5956 14.8166L52.9759 17.8394C52.9897 17.8513 52.993 17.8565 52.9913 17.8543C52.9907 17.8535 52.9898 17.8522 52.9888 17.8505C52.9879 17.8488 52.9874 17.8477 52.9875 17.8478C52.9875 17.848 52.9885 17.8502 52.9899 17.855C52.9914 17.8598 52.9936 17.868 52.9959 17.8801C53.0004 17.9042 53.0058 17.9456 53.0058 18.008H57.0058ZM55.5956 14.8166C54.7034 14.0433 53.6184 13.704 52.4858 13.704V17.704C52.7931 17.704 52.9081 17.7807 52.9759 17.8394L55.5956 14.8166ZM52.4858 13.704C51.3805 13.704 50.3299 14.0372 49.4534 14.7676L52.0141 17.8404C52.0976 17.7708 52.215 17.704 52.4858 17.704V13.704ZM49.4279 14.7892C48.5289 15.5642 48.0602 16.6051 47.8925 17.7071L51.847 18.3089C51.9033 17.9388 52.0106 17.8438 52.0396 17.8188L49.4279 14.7892ZM49.8698 20.008H55.0058V16.008H49.8698V20.008ZM54.5207 7.33143L48.7367 9.75543L50.2828 13.4446L56.0668 11.0206L54.5207 7.33143ZM51.5098 11.6V8.768H47.5098V11.6H51.5098ZM50.3772 10.5701L56.1612 7.78611L54.4263 4.18189L48.6423 6.96589L50.3772 10.5701ZM53.2938 5.984V9.176H57.2938V5.984H53.2938ZM65.4748 22.832H63.4748V24.832H65.4748V22.832ZM70.8508 22.832H72.8508V20.832H70.8508V22.832ZM70.8508 26V28H72.8508V26H70.8508ZM61.3708 26H59.3708V28H61.3708V26ZM61.3708 9.152V7.152H59.3708V9.152H61.3708ZM65.4748 9.152H67.4748V7.152H65.4748V9.152ZM65.4748 24.832H70.8508V20.832H65.4748V24.832ZM68.8508 22.832V26H72.8508V22.832H68.8508ZM70.8508 24H61.3708V28H70.8508V24ZM63.3708 26V9.152H59.3708V26H63.3708ZM61.3708 11.152H65.4748V7.152H61.3708V11.152ZM63.4748 9.152V22.832H67.4748V9.152H63.4748ZM73.0963 10.592L71.708 12.0317L71.7342 12.0569L71.7612 12.0811L73.0963 10.592ZM73.0963 7.424L74.4572 8.88959L74.4591 8.88779L73.0963 7.424ZM76.6003 7.424L75.212 8.86369L75.2382 8.8889L75.2652 8.91314L76.6003 7.424ZM76.6003 10.592L77.9612 12.0576L77.9632 12.0558L76.6003 10.592ZM76.9123 12.608H78.9123V10.608H76.9123V12.608ZM76.9123 26V28H78.9123V26H76.9123ZM72.8083 26H70.8083V28H72.8083V26ZM72.8083 12.608V10.608H70.8083V12.608H72.8083ZM74.8723 9.216C74.5635 9.216 74.472 9.13926 74.4314 9.10286L71.7612 12.0811C72.6486 12.8767 73.7411 13.216 74.8723 13.216V9.216ZM74.4846 9.15231C74.4595 9.12812 74.4466 9.11136 74.4408 9.10307C74.4352 9.09512 74.4337 9.09146 74.4335 9.0909C74.4332 9.09033 74.4315 9.08642 74.4295 9.07626C74.4275 9.0657 74.4243 9.04392 74.4243 9.008H70.4243C70.4243 10.1734 70.868 11.2216 71.708 12.0317L74.4846 9.15231ZM74.4243 9.008C74.4243 8.96489 74.4281 8.93853 74.4305 8.9257C74.4329 8.91337 74.4347 8.91033 74.4335 8.9131C74.4322 8.91602 74.4309 8.91787 74.4316 8.91686C74.4326 8.91554 74.4394 8.90614 74.4572 8.88959L71.7354 5.95841C70.8588 6.77237 70.4243 7.84123 70.4243 9.008H74.4243ZM74.4591 8.88779C74.5023 8.84765 74.5842 8.776 74.8723 8.776V4.776C73.7205 4.776 72.6184 5.13634 71.7335 5.96021L74.4591 8.88779ZM74.8723 8.776C75.1321 8.776 75.1866 8.83919 75.212 8.86369L77.9886 5.98431C77.118 5.14481 76.0205 4.776 74.8723 4.776V8.776ZM75.2652 8.91314C75.2859 8.93168 75.2939 8.94236 75.295 8.94386C75.2959 8.94499 75.2937 8.94203 75.2913 8.93655C75.2889 8.93116 75.2895 8.93066 75.2911 8.93865C75.2928 8.94717 75.2963 8.96914 75.2963 9.008H79.2963C79.2963 7.81718 78.8354 6.74174 77.9354 5.93486L75.2652 8.91314ZM75.2963 9.008C75.2963 9.03956 75.2934 9.05689 75.2922 9.06315C75.291 9.06898 75.2904 9.06943 75.2913 9.06745C75.2921 9.06553 75.2914 9.06807 75.2856 9.07606C75.2795 9.08444 75.2653 9.10227 75.2375 9.12821L77.9632 12.0558C78.8261 11.2523 79.2963 10.1972 79.2963 9.008H75.2963ZM75.2394 9.12641C75.2173 9.14691 75.1535 9.216 74.8723 9.216V13.216C75.9991 13.216 77.0873 12.8691 77.9612 12.0576L75.2394 9.12641ZM74.9123 12.608V26H78.9123V12.608H74.9123ZM76.9123 24H72.8083V28H76.9123V24ZM74.8083 26V12.608H70.8083V26H74.8083ZM72.8083 14.608H76.9123V10.608H72.8083V14.608ZM83.9904 14.504H81.9904V21.5701L85.6938 15.5522L83.9904 14.504ZM85.6464 12.992L84.7053 11.2273L84.7053 11.2273L85.6464 12.992ZM91.1184 13.256L90.0584 14.952L90.0584 14.952L91.1184 13.256ZM93.2304 15.656L91.4361 16.5394L91.4415 16.5504L91.4471 16.5614L93.2304 15.656ZM93.2304 22.928L91.4415 22.0336L91.4361 22.0446L93.2304 22.928ZM91.1184 25.352L92.1784 27.048L92.1892 27.0412L92.2 27.0344L91.1184 25.352ZM85.6464 25.64L84.6887 27.3958L84.7043 27.4043L84.7199 27.4125L85.6464 25.64ZM83.9904 24.128L85.6742 23.0487L81.9904 17.302V24.128H83.9904ZM83.9904 26V28H85.9904V26H83.9904ZM79.8864 26H77.8864V28H79.8864V26ZM79.8864 8.24V6.24H77.8864V8.24H79.8864ZM83.9904 8.24H85.9904V6.24H83.9904V8.24ZM88.9824 16.88L87.5295 18.2544L87.5486 18.2746L87.5682 18.2942L88.9824 16.88ZM84.8064 16.88L83.373 15.4853L83.3632 15.4954L83.3535 15.5056L84.8064 16.88ZM84.8064 21.728L83.3535 23.1024L83.3632 23.1126L83.373 23.1227L84.8064 21.728ZM88.9824 21.728L90.4159 23.1227L90.4252 23.1132L90.4343 23.1035L88.9824 21.728ZM85.6938 15.5522C85.8712 15.2638 86.1442 14.9932 86.5876 14.7567L84.7053 11.2273C83.7086 11.7588 82.8776 12.4962 82.2871 13.4558L85.6938 15.5522ZM86.5876 14.7567C86.9803 14.5473 87.4732 14.416 88.1184 14.416V10.416C86.9077 10.416 85.7526 10.6687 84.7053 11.2273L86.5876 14.7567ZM88.1184 14.416C88.8652 14.416 89.4949 14.5998 90.0584 14.952L92.1784 11.56C90.9499 10.7922 89.5796 10.416 88.1184 10.416V14.416ZM90.0584 14.952C90.6085 15.2958 91.072 15.7998 91.4361 16.5394L95.0248 14.7726C94.3649 13.4322 93.4203 12.3362 92.1784 11.56L90.0584 14.952ZM91.4471 16.5614C91.8092 17.2746 92.0224 18.1623 92.0224 19.28H96.0224C96.0224 17.6457 95.7077 16.1174 95.0138 14.7506L91.4471 16.5614ZM92.0224 19.28C92.0224 20.3968 91.8095 21.2978 91.4416 22.0336L95.0193 23.8224C95.7074 22.4462 96.0224 20.9152 96.0224 19.28H92.0224ZM91.4361 22.0446C91.07 22.7882 90.6004 23.3074 90.0369 23.6696L92.2 27.0344C93.4285 26.2446 94.3669 25.1478 95.0248 23.8114L91.4361 22.0446ZM90.0584 23.656C89.4949 24.0082 88.8652 24.192 88.1184 24.192V28.192C89.5796 28.192 90.9499 27.8158 92.1784 27.048L90.0584 23.656ZM88.1184 24.192C87.4366 24.192 86.9418 24.0603 86.5729 23.8675L84.7199 27.4125C85.7591 27.9557 86.9123 28.192 88.1184 28.192V24.192ZM86.6041 23.8842C86.1703 23.6476 85.8782 23.3669 85.6742 23.0487L82.3067 25.2073C82.9027 26.1371 83.7146 26.8644 84.6887 27.3958L86.6041 23.8842ZM81.9904 24.128V26H85.9904V24.128H81.9904ZM83.9904 24H79.8864V28H83.9904V24ZM81.8864 26V8.24H77.8864V26H81.8864ZM79.8864 10.24H83.9904V6.24H79.8864V10.24ZM81.9904 8.24V14.504H85.9904V8.24H81.9904ZM91.8464 19.28C91.8464 17.8693 91.4384 16.5076 90.3967 15.4658L87.5682 18.2942C87.6784 18.4044 87.8464 18.6427 87.8464 19.28H91.8464ZM90.4354 15.5056C89.4887 14.5049 88.2631 13.992 86.8944 13.992V17.992C87.1898 17.992 87.3561 18.0711 87.5295 18.2544L90.4354 15.5056ZM86.8944 13.992C85.5311 13.992 84.3203 14.5116 83.373 15.4853L86.2399 18.2747C86.4446 18.0644 86.6258 17.992 86.8944 17.992V13.992ZM83.3535 15.5056C82.3581 16.5579 81.9664 17.9059 81.9664 19.304H85.9664C85.9664 18.6541 86.1348 18.3861 86.2594 18.2544L83.3535 15.5056ZM81.9664 19.304C81.9664 20.7021 82.3581 22.0501 83.3535 23.1024L86.2594 20.3536C86.1348 20.2219 85.9664 19.9539 85.9664 19.304H81.9664ZM83.373 23.1227C84.3203 24.0964 85.5311 24.616 86.8944 24.616V20.616C86.6258 20.616 86.4446 20.5436 86.2399 20.3333L83.373 23.1227ZM86.8944 24.616C88.2578 24.616 89.4686 24.0964 90.4159 23.1227L87.549 20.3333C87.3443 20.5436 87.1631 20.616 86.8944 20.616V24.616ZM90.4343 23.1035C91.4371 22.045 91.8464 20.6955 91.8464 19.28H87.8464C87.8464 19.9125 87.6798 20.195 87.5305 20.3525L90.4343 23.1035Z" fill="#2E6DB5" mask="url(#path-1-outside-1_52_6)"/>
<line x1="114" y1="17.5" x2="914" y2="17.5" stroke="#2E6DB5"/>
</svg>
