<svg width="384" height="144" viewBox="0 0 384 144" fill="none" xmlns="http://www.w3.org/2000/svg">
<mask id="path-1-outside-1_41_6" maskUnits="userSpaceOnUse" x="0" y="17" width="382" height="95" fill="black">
<rect fill="white" y="17" width="382" height="95"/>
<path d="M57.312 60.304C57.312 64.208 56.416 67.792 54.624 71.056C52.832 74.256 50.08 76.848 46.368 78.832C42.656 80.816 38.048 81.808 32.544 81.808H22.368V106H5.952V38.608H32.544C37.92 38.608 42.464 39.536 46.176 41.392C49.888 43.248 52.672 45.808 54.528 49.072C56.384 52.336 57.312 56.08 57.312 60.304ZM31.296 68.752C34.432 68.752 36.768 68.016 38.304 66.544C39.84 65.072 40.608 62.992 40.608 60.304C40.608 57.616 39.84 55.536 38.304 54.064C36.768 52.592 34.432 51.856 31.296 51.856H22.368V68.752H31.296ZM90.2423 106.768C84.9943 106.768 80.2583 105.648 76.0343 103.408C71.8743 101.168 68.5783 97.968 66.1463 93.808C63.7783 89.648 62.5943 84.784 62.5943 79.216C62.5943 73.712 63.8103 68.88 66.2422 64.72C68.6743 60.496 72.0023 57.264 76.2263 55.024C80.4503 52.784 85.1863 51.664 90.4343 51.664C95.6823 51.664 100.418 52.784 104.642 55.024C108.866 57.264 112.194 60.496 114.626 64.72C117.058 68.88 118.274 73.712 118.274 79.216C118.274 84.72 117.026 89.584 114.53 93.808C112.098 97.968 108.738 101.168 104.45 103.408C100.226 105.648 95.4903 106.768 90.2423 106.768ZM90.2423 92.56C93.3783 92.56 96.0343 91.408 98.2103 89.104C100.45 86.8 101.57 83.504 101.57 79.216C101.57 74.928 100.482 71.632 98.3063 69.328C96.1943 67.024 93.5703 65.872 90.4343 65.872C87.2343 65.872 84.5783 67.024 82.4663 69.328C80.3543 71.568 79.2983 74.864 79.2983 79.216C79.2983 83.504 80.3223 86.8 82.3703 89.104C84.4823 91.408 87.1063 92.56 90.2423 92.56ZM159.719 106L143.399 83.536V106H126.983V34.96H143.399V74.224L159.623 52.432H179.879L157.607 79.312L180.071 106H159.719ZM236.823 78.352C236.823 79.888 236.727 81.488 236.535 83.152H199.383C199.639 86.48 200.695 89.04 202.551 90.832C204.471 92.56 206.807 93.424 209.559 93.424C213.655 93.424 216.503 91.696 218.103 88.24H235.575C234.679 91.76 233.047 94.928 230.679 97.744C228.375 100.56 225.463 102.768 221.943 104.368C218.423 105.968 214.487 106.768 210.135 106.768C204.887 106.768 200.215 105.648 196.119 103.408C192.023 101.168 188.823 97.968 186.519 93.808C184.215 89.648 183.063 84.784 183.063 79.216C183.063 73.648 184.183 68.784 186.423 64.624C188.727 60.464 191.927 57.264 196.023 55.024C200.119 52.784 204.823 51.664 210.135 51.664C215.319 51.664 219.927 52.752 223.959 54.928C227.991 57.104 231.127 60.208 233.367 64.24C235.671 68.272 236.823 72.976 236.823 78.352ZM220.023 74.032C220.023 71.216 219.063 68.976 217.143 67.312C215.223 65.648 212.823 64.816 209.943 64.816C207.191 64.816 204.855 65.616 202.935 67.216C201.079 68.816 199.927 71.088 199.479 74.032H220.023ZM221.175 38.704L198.039 48.4V37.072L221.175 25.936V38.704ZM261.899 93.328H283.403V106H245.483V38.608H261.899V93.328ZM299.489 46.864C296.609 46.864 294.241 46.032 292.385 44.368C290.593 42.64 289.697 40.528 289.697 38.032C289.697 35.472 290.593 33.36 292.385 31.696C294.241 29.968 296.609 29.104 299.489 29.104C302.305 29.104 304.609 29.968 306.401 31.696C308.257 33.36 309.185 35.472 309.185 38.032C309.185 40.528 308.257 42.64 306.401 44.368C304.609 46.032 302.305 46.864 299.489 46.864ZM307.649 52.432V106H291.233V52.432H307.649ZM335.962 60.016C337.498 57.52 339.706 55.504 342.586 53.968C345.466 52.432 348.762 51.664 352.474 51.664C356.89 51.664 360.89 52.784 364.474 55.024C368.058 57.264 370.874 60.464 372.922 64.624C375.034 68.784 376.09 73.616 376.09 79.12C376.09 84.624 375.034 89.488 372.922 93.712C370.874 97.872 368.058 101.104 364.474 103.408C360.89 105.648 356.89 106.768 352.474 106.768C348.698 106.768 345.402 106.032 342.586 104.56C339.77 103.024 337.562 101.008 335.962 98.512V106H319.546V34.96H335.962V60.016ZM359.386 79.12C359.386 75.024 358.234 71.824 355.93 69.52C353.69 67.152 350.906 65.968 347.578 65.968C344.314 65.968 341.53 67.152 339.226 69.52C336.986 71.888 335.866 75.12 335.866 79.216C335.866 83.312 336.986 86.544 339.226 88.912C341.53 91.28 344.314 92.464 347.578 92.464C350.842 92.464 353.626 91.28 355.93 88.912C358.234 86.48 359.386 83.216 359.386 79.12Z"/>
</mask>
<path d="M57.312 60.304C57.312 64.208 56.416 67.792 54.624 71.056C52.832 74.256 50.08 76.848 46.368 78.832C42.656 80.816 38.048 81.808 32.544 81.808H22.368V106H5.952V38.608H32.544C37.92 38.608 42.464 39.536 46.176 41.392C49.888 43.248 52.672 45.808 54.528 49.072C56.384 52.336 57.312 56.08 57.312 60.304ZM31.296 68.752C34.432 68.752 36.768 68.016 38.304 66.544C39.84 65.072 40.608 62.992 40.608 60.304C40.608 57.616 39.84 55.536 38.304 54.064C36.768 52.592 34.432 51.856 31.296 51.856H22.368V68.752H31.296ZM90.2423 106.768C84.9943 106.768 80.2583 105.648 76.0343 103.408C71.8743 101.168 68.5783 97.968 66.1463 93.808C63.7783 89.648 62.5943 84.784 62.5943 79.216C62.5943 73.712 63.8103 68.88 66.2422 64.72C68.6743 60.496 72.0023 57.264 76.2263 55.024C80.4503 52.784 85.1863 51.664 90.4343 51.664C95.6823 51.664 100.418 52.784 104.642 55.024C108.866 57.264 112.194 60.496 114.626 64.72C117.058 68.88 118.274 73.712 118.274 79.216C118.274 84.72 117.026 89.584 114.53 93.808C112.098 97.968 108.738 101.168 104.45 103.408C100.226 105.648 95.4903 106.768 90.2423 106.768ZM90.2423 92.56C93.3783 92.56 96.0343 91.408 98.2103 89.104C100.45 86.8 101.57 83.504 101.57 79.216C101.57 74.928 100.482 71.632 98.3063 69.328C96.1943 67.024 93.5703 65.872 90.4343 65.872C87.2343 65.872 84.5783 67.024 82.4663 69.328C80.3543 71.568 79.2983 74.864 79.2983 79.216C79.2983 83.504 80.3223 86.8 82.3703 89.104C84.4823 91.408 87.1063 92.56 90.2423 92.56ZM159.719 106L143.399 83.536V106H126.983V34.96H143.399V74.224L159.623 52.432H179.879L157.607 79.312L180.071 106H159.719ZM236.823 78.352C236.823 79.888 236.727 81.488 236.535 83.152H199.383C199.639 86.48 200.695 89.04 202.551 90.832C204.471 92.56 206.807 93.424 209.559 93.424C213.655 93.424 216.503 91.696 218.103 88.24H235.575C234.679 91.76 233.047 94.928 230.679 97.744C228.375 100.56 225.463 102.768 221.943 104.368C218.423 105.968 214.487 106.768 210.135 106.768C204.887 106.768 200.215 105.648 196.119 103.408C192.023 101.168 188.823 97.968 186.519 93.808C184.215 89.648 183.063 84.784 183.063 79.216C183.063 73.648 184.183 68.784 186.423 64.624C188.727 60.464 191.927 57.264 196.023 55.024C200.119 52.784 204.823 51.664 210.135 51.664C215.319 51.664 219.927 52.752 223.959 54.928C227.991 57.104 231.127 60.208 233.367 64.24C235.671 68.272 236.823 72.976 236.823 78.352ZM220.023 74.032C220.023 71.216 219.063 68.976 217.143 67.312C215.223 65.648 212.823 64.816 209.943 64.816C207.191 64.816 204.855 65.616 202.935 67.216C201.079 68.816 199.927 71.088 199.479 74.032H220.023ZM221.175 38.704L198.039 48.4V37.072L221.175 25.936V38.704ZM261.899 93.328H283.403V106H245.483V38.608H261.899V93.328ZM299.489 46.864C296.609 46.864 294.241 46.032 292.385 44.368C290.593 42.64 289.697 40.528 289.697 38.032C289.697 35.472 290.593 33.36 292.385 31.696C294.241 29.968 296.609 29.104 299.489 29.104C302.305 29.104 304.609 29.968 306.401 31.696C308.257 33.36 309.185 35.472 309.185 38.032C309.185 40.528 308.257 42.64 306.401 44.368C304.609 46.032 302.305 46.864 299.489 46.864ZM307.649 52.432V106H291.233V52.432H307.649ZM335.962 60.016C337.498 57.52 339.706 55.504 342.586 53.968C345.466 52.432 348.762 51.664 352.474 51.664C356.89 51.664 360.89 52.784 364.474 55.024C368.058 57.264 370.874 60.464 372.922 64.624C375.034 68.784 376.09 73.616 376.09 79.12C376.09 84.624 375.034 89.488 372.922 93.712C370.874 97.872 368.058 101.104 364.474 103.408C360.89 105.648 356.89 106.768 352.474 106.768C348.698 106.768 345.402 106.032 342.586 104.56C339.77 103.024 337.562 101.008 335.962 98.512V106H319.546V34.96H335.962V60.016ZM359.386 79.12C359.386 75.024 358.234 71.824 355.93 69.52C353.69 67.152 350.906 65.968 347.578 65.968C344.314 65.968 341.53 67.152 339.226 69.52C336.986 71.888 335.866 75.12 335.866 79.216C335.866 83.312 336.986 86.544 339.226 88.912C341.53 91.28 344.314 92.464 347.578 92.464C350.842 92.464 353.626 91.28 355.93 88.912C358.234 86.48 359.386 83.216 359.386 79.12Z" fill="#FFB610"/>
<path d="M54.624 71.056L58.9865 73.499L58.9968 73.4807L59.0069 73.4623L54.624 71.056ZM46.368 78.832L44.0111 74.4223L44.0111 74.4223L46.368 78.832ZM22.368 81.808V76.808H17.368V81.808H22.368ZM22.368 106V111H27.368V106H22.368ZM5.952 106H0.952V111H5.952V106ZM5.952 38.608V33.608H0.952V38.608H5.952ZM46.176 41.392L48.4121 36.9199L48.4121 36.9199L46.176 41.392ZM22.368 51.856V46.856H17.368V51.856H22.368ZM22.368 68.752H17.368V73.752H22.368V68.752ZM52.312 60.304C52.312 63.409 51.6084 66.1593 50.2411 68.6497L59.0069 73.4623C61.2236 69.4247 62.312 65.007 62.312 60.304H52.312ZM50.2615 68.613C49.0023 70.8615 47.0078 72.8207 44.0111 74.4223L48.7249 83.2417C53.1522 80.8753 56.6617 77.6504 58.9865 73.499L50.2615 68.613ZM44.0111 74.4223C41.2131 75.9178 37.4705 76.808 32.544 76.808V86.808C38.6255 86.808 44.0989 85.7142 48.7249 83.2417L44.0111 74.4223ZM32.544 76.808H22.368V86.808H32.544V76.808ZM17.368 81.808V106H27.368V81.808H17.368ZM22.368 101H5.952V111H22.368V101ZM10.952 106V38.608H0.952V106H10.952ZM5.952 43.608H32.544V33.608H5.952V43.608ZM32.544 43.608C37.3651 43.608 41.0963 44.4423 43.9399 45.8641L48.4121 36.9199C43.8317 34.6297 38.4749 33.608 32.544 33.608V43.608ZM43.9399 45.8641C46.8629 47.3256 48.8663 49.2305 50.1816 51.5435L58.8745 46.6005C56.4777 42.3855 52.9131 39.1704 48.4121 36.9199L43.9399 45.8641ZM50.1816 51.5435C51.5578 53.9638 52.312 56.8362 52.312 60.304H62.312C62.312 55.3238 61.2102 50.7082 58.8745 46.6005L50.1816 51.5435ZM31.296 73.752C35.117 73.752 38.9366 72.8631 41.7635 70.1539L34.8445 62.9341C34.5994 63.1689 33.747 63.752 31.296 63.752V73.752ZM41.7635 70.1539C44.5281 67.5045 45.608 63.9745 45.608 60.304H35.608C35.608 62.0095 35.1519 62.6395 34.8445 62.9341L41.7635 70.1539ZM45.608 60.304C45.608 56.6335 44.5281 53.1035 41.7635 50.4541L34.8445 57.6739C35.1519 57.9685 35.608 58.5985 35.608 60.304H45.608ZM41.7635 50.4541C38.9366 47.7449 35.117 46.856 31.296 46.856V56.856C33.747 56.856 34.5994 57.4391 34.8445 57.6739L41.7635 50.4541ZM31.296 46.856H22.368V56.856H31.296V46.856ZM17.368 51.856V68.752H27.368V51.856H17.368ZM22.368 73.752H31.296V63.752H22.368V73.752ZM76.0343 103.408L73.6638 107.81L73.6777 107.818L73.6917 107.825L76.0343 103.408ZM66.1463 93.808L61.8009 96.2815L61.8152 96.3066L61.8298 96.3315L66.1463 93.808ZM66.2422 64.72L70.5587 67.2435L70.5671 67.2292L70.5754 67.2148L66.2422 64.72ZM76.2263 55.024L78.5688 59.4413L78.5688 59.4413L76.2263 55.024ZM104.642 55.024L102.3 59.4413L102.3 59.4413L104.642 55.024ZM114.626 64.72L110.293 67.2148L110.301 67.2292L110.31 67.2435L114.626 64.72ZM114.53 93.808L110.226 91.2644L110.22 91.2744L110.214 91.2845L114.53 93.808ZM104.45 103.408L102.135 98.9763L102.121 98.9834L102.108 98.9907L104.45 103.408ZM98.2103 89.104L94.6253 85.6186L94.6 85.6446L94.5752 85.6709L98.2103 89.104ZM98.3063 69.328L94.6205 72.7066L94.6456 72.7341L94.6712 72.7611L98.3063 69.328ZM82.4663 69.328L86.1042 72.7581L86.1283 72.7325L86.152 72.7066L82.4663 69.328ZM82.3703 89.104L78.6332 92.4258L78.6586 92.4544L78.6845 92.4826L82.3703 89.104ZM90.2423 101.768C85.7296 101.768 81.8106 100.812 78.3768 98.9907L73.6917 107.825C78.7059 110.484 84.2589 111.768 90.2423 111.768V101.768ZM78.4048 99.0056C75.0705 97.2103 72.4407 94.668 70.4627 91.2845L61.8298 96.3315C64.7158 101.268 68.678 105.126 73.6638 107.81L78.4048 99.0056ZM70.4916 91.3345C68.6182 88.0434 67.5943 84.0596 67.5943 79.216H57.5943C57.5943 85.5084 58.9383 91.2526 61.8009 96.2815L70.4916 91.3345ZM67.5943 79.216C67.5943 74.4706 68.6349 70.5342 70.5587 67.2435L61.9258 62.1965C58.9856 67.2258 57.5943 72.9534 57.5943 79.216H67.5943ZM70.5754 67.2148C72.5476 63.7894 75.1929 61.2316 78.5688 59.4413L73.8837 50.6067C68.8116 53.2964 64.8009 57.2026 61.9091 62.2252L70.5754 67.2148ZM78.5688 59.4413C82.0026 57.6203 85.9216 56.664 90.4343 56.664V46.664C84.4509 46.664 78.8979 47.9477 73.8837 50.6067L78.5688 59.4413ZM90.4343 56.664C94.9469 56.664 98.8659 57.6203 102.3 59.4413L106.985 50.6067C101.971 47.9477 96.4176 46.664 90.4343 46.664V56.664ZM102.3 59.4413C105.676 61.2316 108.321 63.7894 110.293 67.2148L118.959 62.2252C116.068 57.2026 112.057 53.2964 106.985 50.6067L102.3 59.4413ZM110.31 67.2435C112.234 70.5342 113.274 74.4706 113.274 79.216H123.274C123.274 72.9534 121.883 67.2258 118.943 62.1965L110.31 67.2435ZM113.274 79.216C113.274 83.9367 112.213 87.9014 110.226 91.2644L118.835 96.3516C121.84 91.2666 123.274 85.5033 123.274 79.216H113.274ZM110.214 91.2845C108.258 94.6295 105.593 97.1697 102.135 98.9763L106.765 107.84C111.883 105.166 115.938 101.306 118.847 96.3315L110.214 91.2845ZM102.108 98.9907C98.6739 100.812 94.7549 101.768 90.2423 101.768V111.768C96.2256 111.768 101.779 110.484 106.793 107.825L102.108 98.9907ZM90.2423 97.56C94.7703 97.56 98.7361 95.8292 101.845 92.5371L94.5752 85.6709C93.3324 86.9868 91.9862 87.56 90.2423 87.56V97.56ZM101.795 92.5894C105.213 89.074 106.57 84.358 106.57 79.216H96.5703C96.5703 82.6499 95.6875 84.526 94.6253 85.6186L101.795 92.5894ZM106.57 79.216C106.57 74.1106 105.265 69.4143 101.941 65.8949L94.6712 72.7611C95.6993 73.8497 96.5703 75.7454 96.5703 79.216H106.57ZM101.992 65.9494C98.9294 62.6083 94.9664 60.872 90.4343 60.872V70.872C92.1741 70.872 93.4591 71.4397 94.6205 72.7066L101.992 65.9494ZM90.4343 60.872C85.8707 60.872 81.8649 62.5846 78.7805 65.9494L86.152 72.7066C87.2916 71.4634 88.5978 70.872 90.4343 70.872V60.872ZM78.8283 65.8979C75.536 69.3898 74.2983 74.1174 74.2983 79.216H84.2983C84.2983 75.6106 85.1725 73.7462 86.1042 72.7581L78.8283 65.8979ZM74.2983 79.216C74.2983 84.2498 75.5016 88.9028 78.6332 92.4258L86.1073 85.7822C85.1429 84.6972 84.2983 82.7582 84.2983 79.216H74.2983ZM78.6845 92.4826C81.7471 95.8237 85.7101 97.56 90.2423 97.56V87.56C88.5024 87.56 87.2174 86.9923 86.056 85.7254L78.6845 92.4826ZM159.719 106L155.674 108.939L157.172 111H159.719V106ZM143.399 83.536L147.444 80.5972L138.399 68.1468V83.536H143.399ZM143.399 106V111H148.399V106H143.399ZM126.983 106H121.983V111H126.983V106ZM126.983 34.96V29.96H121.983V34.96H126.983ZM143.399 34.96H148.399V29.96H143.399V34.96ZM143.399 74.224H138.399V89.3128L147.41 77.2098L143.399 74.224ZM159.623 52.432V47.432H157.112L155.613 49.4462L159.623 52.432ZM179.879 52.432L183.729 55.6221L190.515 47.432H179.879V52.432ZM157.607 79.312L153.757 76.1219L151.093 79.3372L153.782 82.5318L157.607 79.312ZM180.071 106V111H190.815L183.897 102.78L180.071 106ZM163.764 103.061L147.444 80.5972L139.354 86.4748L155.674 108.939L163.764 103.061ZM138.399 83.536V106H148.399V83.536H138.399ZM143.399 101H126.983V111H143.399V101ZM131.983 106V34.96H121.983V106H131.983ZM126.983 39.96H143.399V29.96H126.983V39.96ZM138.399 34.96V74.224H148.399V34.96H138.399ZM147.41 77.2098L163.634 55.4178L155.613 49.4462L139.389 71.2382L147.41 77.2098ZM159.623 57.432H179.879V47.432H159.623V57.432ZM176.029 49.2419L153.757 76.1219L161.457 82.5021L183.729 55.6221L176.029 49.2419ZM153.782 82.5318L176.246 109.22L183.897 102.78L161.433 76.0922L153.782 82.5318ZM180.071 101H159.719V111H180.071V101ZM236.535 83.152V88.152H240.991L241.502 83.7251L236.535 83.152ZM199.383 83.152V78.152H193.984L194.398 83.5355L199.383 83.152ZM202.551 90.832L199.078 94.429L199.141 94.4899L199.206 94.5485L202.551 90.832ZM218.103 88.24V83.24H214.908L213.566 86.1394L218.103 88.24ZM235.575 88.24L240.42 89.4734L242.007 83.24H235.575V88.24ZM230.679 97.744L226.852 94.526L226.831 94.5518L226.809 94.5778L230.679 97.744ZM221.943 104.368L224.012 108.92L221.943 104.368ZM196.119 103.408L193.72 107.795L193.72 107.795L196.119 103.408ZM186.519 93.808L190.893 91.3855L190.893 91.3855L186.519 93.808ZM186.423 64.624L182.049 62.2015L182.035 62.2274L182.021 62.2535L186.423 64.624ZM196.023 55.024L198.422 59.4109L198.422 59.4109L196.023 55.024ZM223.959 54.928L221.584 59.3281L221.584 59.3281L223.959 54.928ZM233.367 64.24L228.996 66.6682L229.011 66.6945L229.026 66.7207L233.367 64.24ZM220.023 74.032V79.032H225.023V74.032H220.023ZM217.143 67.312L220.418 63.5336L220.418 63.5336L217.143 67.312ZM202.935 67.216L199.734 63.3749L199.702 63.4017L199.67 63.4289L202.935 67.216ZM199.479 74.032L194.536 73.2798L193.661 79.032H199.479V74.032ZM221.175 38.704L223.108 43.3154L226.175 42.0299V38.704H221.175ZM198.039 48.4H193.039V55.9168L199.972 53.0114L198.039 48.4ZM198.039 37.072L195.87 32.5667L193.039 33.9296V37.072H198.039ZM221.175 25.936H226.175V17.9803L219.006 21.4307L221.175 25.936ZM231.823 78.352C231.823 79.6802 231.74 81.0883 231.568 82.5789L241.502 83.7251C241.714 81.8877 241.823 80.0958 241.823 78.352H231.823ZM236.535 78.152H199.383V88.152H236.535V78.152ZM194.398 83.5355C194.719 87.7159 196.108 91.5617 199.078 94.429L206.024 87.235C205.282 86.5183 204.559 85.2441 204.368 82.7685L194.398 83.5355ZM199.206 94.5485C202.108 97.1599 205.66 98.424 209.559 98.424V88.424C207.954 88.424 206.834 87.9601 205.896 87.1155L199.206 94.5485ZM209.559 98.424C212.312 98.424 214.993 97.8392 217.361 96.4027C219.752 94.9521 221.485 92.8372 222.64 90.3406L213.566 86.1394C213.121 87.0988 212.63 87.5759 212.173 87.8533C211.693 88.1448 210.902 88.424 209.559 88.424V98.424ZM218.103 93.24H235.575V83.24H218.103V93.24ZM230.73 87.0066C230.022 89.7871 228.742 92.2786 226.852 94.526L234.506 100.962C237.352 97.5774 239.336 93.7329 240.42 89.4734L230.73 87.0066ZM226.809 94.5778C225.021 96.7628 222.74 98.5133 219.874 99.8162L224.012 108.92C228.186 107.023 231.729 104.357 234.549 100.91L226.809 94.5778ZM219.874 99.8162C217.081 101.086 213.863 101.768 210.135 101.768V111.768C215.111 111.768 219.765 110.85 224.012 108.92L219.874 99.8162ZM210.135 101.768C205.62 101.768 201.791 100.811 198.518 99.0211L193.72 107.795C198.639 110.485 204.154 111.768 210.135 111.768V101.768ZM198.518 99.0211C195.269 97.2445 192.747 94.7332 190.893 91.3855L182.145 96.2305C184.899 101.203 188.777 105.091 193.72 107.795L198.518 99.0211ZM190.893 91.3855C189.065 88.0846 188.063 84.082 188.063 79.216H178.063C178.063 85.486 179.365 91.2114 182.145 96.2305L190.893 91.3855ZM188.063 79.216C188.063 74.3276 189.042 70.3061 190.825 66.9945L182.021 62.2535C179.324 67.2619 178.063 72.9683 178.063 79.216H188.063ZM190.797 67.0465C192.651 63.6988 195.173 61.1875 198.422 59.4109L193.624 50.6371C188.681 53.3405 184.803 57.2292 182.049 62.2015L190.797 67.0465ZM198.422 59.4109C201.686 57.6258 205.544 56.664 210.135 56.664V46.664C204.102 46.664 198.552 47.9422 193.624 50.6371L198.422 59.4109ZM210.135 56.664C214.6 56.664 218.373 57.5952 221.584 59.3281L226.334 50.5279C221.481 47.9088 216.038 46.664 210.135 46.664V56.664ZM221.584 59.3281C224.77 61.0476 227.216 63.4646 228.996 66.6682L237.738 61.8118C235.038 56.9514 231.212 53.1604 226.334 50.5279L221.584 59.3281ZM229.026 66.7207C230.834 69.8853 231.823 73.7074 231.823 78.352H241.823C241.823 72.2446 240.508 66.6587 237.708 61.7593L229.026 66.7207ZM225.023 74.032C225.023 69.9423 223.56 66.257 220.418 63.5336L213.868 71.0904C214.566 71.695 215.023 72.4897 215.023 74.032H225.023ZM220.418 63.5336C217.467 60.9763 213.855 59.816 209.943 59.816V69.816C211.791 69.816 212.979 70.3197 213.868 71.0904L220.418 63.5336ZM209.943 59.816C206.148 59.816 202.645 60.9489 199.734 63.3749L206.136 71.0571C207.065 70.2831 208.234 69.816 209.943 69.816V59.816ZM199.67 63.4289C196.727 65.9665 195.123 69.4209 194.536 73.2798L204.422 74.7842C204.731 72.7551 205.431 71.6655 206.2 71.003L199.67 63.4289ZM199.479 79.032H220.023V69.032H199.479V79.032ZM219.242 34.0926L196.106 43.7886L199.972 53.0114L223.108 43.3154L219.242 34.0926ZM203.039 48.4V37.072H193.039V48.4H203.039ZM200.208 41.5773L223.344 30.4413L219.006 21.4307L195.87 32.5667L200.208 41.5773ZM216.175 25.936V38.704H226.175V25.936H216.175ZM261.899 93.328H256.899V98.328H261.899V93.328ZM283.403 93.328H288.403V88.328H283.403V93.328ZM283.403 106V111H288.403V106H283.403ZM245.483 106H240.483V111H245.483V106ZM245.483 38.608V33.608H240.483V38.608H245.483ZM261.899 38.608H266.899V33.608H261.899V38.608ZM261.899 98.328H283.403V88.328H261.899V98.328ZM278.403 93.328V106H288.403V93.328H278.403ZM283.403 101H245.483V111H283.403V101ZM250.483 106V38.608H240.483V106H250.483ZM245.483 43.608H261.899V33.608H245.483V43.608ZM256.899 38.608V93.328H266.899V38.608H256.899ZM292.385 44.368L288.915 47.9672L288.98 48.0302L289.048 48.0908L292.385 44.368ZM292.385 31.696L295.788 35.36L295.792 35.3555L292.385 31.696ZM306.401 31.696L302.931 35.2952L302.996 35.3582L303.064 35.4188L306.401 31.696ZM306.401 44.368L309.804 48.032L309.808 48.0275L306.401 44.368ZM307.649 52.432H312.649V47.432H307.649V52.432ZM307.649 106V111H312.649V106H307.649ZM291.233 106H286.233V111H291.233V106ZM291.233 52.432V47.432H286.233V52.432H291.233ZM299.489 41.864C297.637 41.864 296.52 41.3601 295.723 40.6451L289.048 48.0908C291.962 50.7038 295.581 51.864 299.489 51.864V41.864ZM295.856 40.7688C295.044 39.986 294.697 39.1744 294.697 38.032H284.697C284.697 41.8815 286.142 45.294 288.915 47.9672L295.856 40.7688ZM294.697 38.032C294.697 36.7889 295.067 36.0291 295.788 35.36L288.983 28.032C286.12 30.6909 284.697 34.1551 284.697 38.032H294.697ZM295.792 35.3555C296.596 34.6071 297.689 34.104 299.489 34.104V24.104C295.53 24.104 291.886 25.3289 288.978 28.0365L295.792 35.3555ZM299.489 34.104C301.195 34.104 302.195 34.586 302.931 35.2952L309.872 28.0968C307.023 25.35 303.416 24.104 299.489 24.104V34.104ZM303.064 35.4188C303.83 36.1056 304.185 36.8491 304.185 38.032H314.185C314.185 34.0949 312.685 30.6144 309.739 27.9731L303.064 35.4188ZM304.185 38.032C304.185 39.115 303.853 39.9092 302.994 40.7085L309.808 48.0275C312.662 45.3708 314.185 41.941 314.185 38.032H304.185ZM302.999 40.704C302.272 41.3793 301.248 41.864 299.489 41.864V51.864C303.362 51.864 306.947 50.6847 309.804 48.032L302.999 40.704ZM302.649 52.432V106H312.649V52.432H302.649ZM307.649 101H291.233V111H307.649V101ZM296.233 106V52.432H286.233V106H296.233ZM291.233 57.432H307.649V47.432H291.233V57.432ZM335.962 60.016H330.962V77.6812L340.22 62.6365L335.962 60.016ZM342.586 53.968L340.233 49.5562L340.233 49.5562L342.586 53.968ZM364.474 55.024L361.824 59.264L361.824 59.264L364.474 55.024ZM372.922 64.624L368.436 66.8324L368.449 66.86L368.463 66.8875L372.922 64.624ZM372.922 93.712L368.45 91.4759L368.443 91.4897L368.436 91.5036L372.922 93.712ZM364.474 103.408L367.124 107.648L367.151 107.631L367.178 107.614L364.474 103.408ZM342.586 104.56L340.191 108.949L340.23 108.971L340.269 108.991L342.586 104.56ZM335.962 98.512L340.171 95.8137L330.962 81.447V98.512H335.962ZM335.962 106V111H340.962V106H335.962ZM319.546 106H314.546V111H319.546V106ZM319.546 34.96V29.96H314.546V34.96H319.546ZM335.962 34.96H340.962V29.96H335.962V34.96ZM355.93 69.52L352.297 72.956L352.345 73.0064L352.394 73.0555L355.93 69.52ZM339.226 69.52L335.642 66.0332L335.618 66.0584L335.593 66.084L339.226 69.52ZM339.226 88.912L335.593 92.348L335.618 92.3736L335.642 92.3988L339.226 88.912ZM355.93 88.912L359.513 92.3988L359.537 92.3749L359.56 92.3507L355.93 88.912ZM340.22 62.6365C341.24 60.9795 342.75 59.5469 344.939 58.3798L340.233 49.5562C336.661 51.4611 333.756 54.0605 331.703 57.3955L340.22 62.6365ZM344.939 58.3798C347 57.2802 349.469 56.664 352.474 56.664V46.664C348.055 46.664 343.931 47.5838 340.233 49.5562L344.939 58.3798ZM352.474 56.664C355.997 56.664 359.071 57.5435 361.824 59.264L367.124 50.784C362.708 48.0245 357.783 46.664 352.474 46.664V56.664ZM361.824 59.264C364.543 60.9635 366.758 63.4234 368.436 66.8324L377.408 62.4156C374.99 57.5046 371.573 53.5645 367.124 50.784L361.824 59.264ZM368.463 66.8875C370.161 70.2305 371.09 74.2618 371.09 79.12H381.09C381.09 72.9702 379.907 67.3375 377.38 62.3605L368.463 66.8875ZM371.09 79.12C371.09 83.976 370.161 88.0525 368.45 91.4759L377.394 95.9481C379.906 90.9235 381.09 85.272 381.09 79.12H371.09ZM368.436 91.5036C366.753 94.9226 364.523 97.4326 361.77 99.2021L367.178 107.614C371.593 104.775 374.995 100.821 377.408 95.9204L368.436 91.5036ZM361.824 99.168C359.071 100.888 355.997 101.768 352.474 101.768V111.768C357.783 111.768 362.708 110.408 367.124 107.648L361.824 99.168ZM352.474 101.768C349.353 101.768 346.88 101.163 344.902 100.129L340.269 108.991C343.923 110.901 348.042 111.768 352.474 111.768V101.768ZM344.98 100.171C342.839 99.0029 341.281 97.5452 340.171 95.8137L331.752 101.21C333.842 104.471 336.7 107.045 340.191 108.949L344.98 100.171ZM330.962 98.512V106H340.962V98.512H330.962ZM335.962 101H319.546V111H335.962V101ZM324.546 106V34.96H314.546V106H324.546ZM319.546 39.96H335.962V29.96H319.546V39.96ZM330.962 34.96V60.016H340.962V34.96H330.962ZM364.386 79.12C364.386 74.0573 362.934 69.4529 359.465 65.9845L352.394 73.0555C353.534 74.1951 354.386 75.9907 354.386 79.12H364.386ZM359.562 66.084C356.356 62.6942 352.247 60.968 347.578 60.968V70.968C349.564 70.968 351.024 71.6098 352.297 72.956L359.562 66.084ZM347.578 60.968C342.945 60.968 338.874 62.7111 335.642 66.0332L342.809 73.0068C344.185 71.5929 345.682 70.968 347.578 70.968V60.968ZM335.593 66.084C332.265 69.6027 330.866 74.1848 330.866 79.216H340.866C340.866 76.0552 341.707 74.1733 342.858 72.956L335.593 66.084ZM330.866 79.216C330.866 84.2472 332.265 88.8293 335.593 92.348L342.858 85.476C341.707 84.2587 340.866 82.3768 340.866 79.216H330.866ZM335.642 92.3988C338.874 95.7209 342.945 97.464 347.578 97.464V87.464C345.682 87.464 344.185 86.8391 342.809 85.4252L335.642 92.3988ZM347.578 97.464C352.21 97.464 356.281 95.7209 359.513 92.3988L352.346 85.4252C350.97 86.8391 349.473 87.464 347.578 87.464V97.464ZM359.56 92.3507C362.93 88.7926 364.386 84.1948 364.386 79.12H354.386C354.386 82.2372 353.537 84.1674 352.3 85.4733L359.56 92.3507Z" fill="#2E6DB5" mask="url(#path-1-outside-1_41_6)"/>
</svg>
