<svg width="983" height="983" viewBox="0 0 983 983" fill="none" xmlns="http://www.w3.org/2000/svg">
<g filter="url(#filter0_f_55_9)">
<circle cx="491.5" cy="491.5" r="291.5" fill="#FFFCF5" fill-opacity="0.5"/>
</g>
<g clip-path="url(#clip0_55_9)">
<path d="M696.507 405.892C685.303 379.398 669.266 355.598 648.84 335.167C628.401 314.741 604.596 298.696 578.114 287.493C550.683 275.889 521.539 270.001 491.5 270.001C461.466 270.001 432.324 275.888 404.892 287.493C378.397 298.696 354.597 314.742 334.165 335.167C313.74 355.598 297.696 379.398 286.491 405.892C274.888 433.325 269 462.468 269 492.5C269 522.539 274.887 551.683 286.492 579.115C297.696 605.597 313.741 629.402 334.166 649.827C354.597 670.267 378.397 686.304 404.892 697.507C432.325 709.105 461.467 714.999 491.5 714.999C521.54 714.999 550.684 709.105 578.115 697.507C604.597 686.303 628.402 670.266 648.841 649.827C669.267 629.402 685.304 605.596 696.508 579.115C708.106 551.683 714 522.539 714 492.5C713.999 462.468 708.105 433.325 696.507 405.892Z" fill="#ED5564"/>
<path d="M269.089 498.747C269.849 526.573 275.688 553.585 286.492 579.115C297.695 605.597 313.741 629.402 334.166 649.827C354.597 670.267 378.397 686.304 404.892 697.507C432.325 709.105 461.467 714.999 491.5 714.999C521.54 714.999 550.684 709.105 578.115 697.507C604.597 686.303 628.402 670.266 648.841 649.827C669.267 629.402 685.304 605.596 696.508 579.115C707.319 553.585 713.158 526.573 713.918 498.747H269.089Z" fill="#E6E9ED"/>
<path d="M712.94 514.419C713.645 507.167 713.999 499.861 713.999 492.5C713.999 484.229 713.551 476.027 712.668 467.913C701.614 469.617 685.738 471.838 665.735 474.044C627.763 478.233 566.734 483.231 491.5 483.231C416.272 483.231 355.235 478.233 317.271 474.044C297.261 471.837 281.392 469.617 270.338 467.913C269.448 476.027 269 484.23 269 492.5C269 499.861 269.353 507.168 270.06 514.419C306.156 519.851 385.682 529.574 491.5 529.574C597.317 529.574 676.842 519.851 712.94 514.419Z" fill="#434A54"/>
<path d="M537.863 501.768C537.863 527.373 517.097 548.124 491.5 548.124C465.901 548.124 445.144 527.373 445.144 501.768C445.144 476.169 465.901 455.418 491.5 455.418C517.097 455.419 537.863 476.17 537.863 501.768Z" fill="#E6E9ED"/>
<path d="M491.5 418.332C445.489 418.332 408.062 455.766 408.062 501.769C408.062 547.772 445.49 585.199 491.5 585.199C537.509 585.199 574.936 547.772 574.936 501.769C574.936 455.766 537.51 418.332 491.5 418.332ZM491.5 538.864C471.055 538.864 454.418 522.214 454.418 501.769C454.418 481.324 471.054 464.688 491.5 464.688C511.952 464.688 528.573 481.324 528.573 501.769C528.573 522.213 511.952 538.864 491.5 538.864Z" fill="#434A54"/>
<path opacity="0.2" d="M696.507 405.892C685.303 379.398 669.266 355.598 648.84 335.167C628.401 314.741 604.596 298.696 578.114 287.493C550.683 275.889 521.539 270.001 491.5 270.001C488.397 270.001 485.307 270.069 482.231 270.191C508.991 271.278 534.956 277.084 559.564 287.493C586.072 298.696 609.865 314.742 630.289 335.167C650.714 355.598 666.767 379.398 677.969 405.892C689.58 433.325 695.447 462.468 695.447 492.501C695.447 522.54 689.58 551.684 677.969 579.115C666.766 605.598 650.714 629.403 630.289 649.828C609.865 670.267 586.072 686.304 559.564 697.508C534.956 707.911 508.991 713.723 482.231 714.81C485.307 714.932 488.396 715 491.5 715C521.539 715 550.683 709.106 578.114 697.508C604.596 686.304 628.401 670.267 648.84 649.828C669.266 629.403 685.303 605.597 696.507 579.115C708.105 551.684 713.999 522.54 713.999 492.501C713.999 462.468 708.105 433.325 696.507 405.892Z" fill="white"/>
<path opacity="0.1" d="M286.492 579.115C297.696 605.597 313.741 629.402 334.166 649.827C354.597 670.267 378.397 686.304 404.892 697.507C432.325 709.105 461.467 714.999 491.5 714.999C494.603 714.999 497.693 714.931 500.769 714.809C474.008 713.722 448.037 707.909 423.429 697.507C396.934 686.303 373.142 670.266 352.71 649.827C332.279 629.402 316.24 605.596 305.03 579.115C293.424 551.684 287.545 522.54 287.545 492.5C287.545 462.467 293.424 433.324 305.029 405.891C316.239 379.397 332.278 355.596 352.709 335.173C373.141 314.741 396.933 298.696 423.428 287.492C448.036 277.083 474.008 271.277 500.768 270.19C497.692 270.069 494.602 270.001 491.5 270.001C461.466 270.001 432.324 275.888 404.892 287.493C378.397 298.696 354.597 314.742 334.165 335.174C313.74 355.598 297.696 379.398 286.491 405.892C274.888 433.325 269 462.468 269 492.5C269 522.539 274.888 551.684 286.492 579.115Z" fill="black"/>
</g>
<defs>
<filter id="filter0_f_55_9" x="0" y="0" width="983" height="983" filterUnits="userSpaceOnUse" color-interpolation-filters="sRGB">
<feFlood flood-opacity="0" result="BackgroundImageFix"/>
<feBlend mode="normal" in="SourceGraphic" in2="BackgroundImageFix" result="shape"/>
<feGaussianBlur stdDeviation="100" result="effect1_foregroundBlur_55_9"/>
</filter>
<clipPath id="clip0_55_9">
<rect width="445" height="445" fill="white" transform="translate(269 270)"/>
</clipPath>
</defs>
</svg>
