<svg width="1681" height="296" viewBox="0 0 1681 296" fill="none" xmlns="http://www.w3.org/2000/svg">
<path d="M161.1 150.2C161.1 162.4 158.3 173.6 152.7 183.8C147.1 193.8 138.5 201.9 126.9 208.1C115.3 214.3 100.9 217.4 83.7 217.4H51.9V293H0.600001V82.4H83.7C100.5 82.4 114.7 85.3 126.3 91.1C137.9 96.9 146.6 104.9 152.4 115.1C158.2 125.3 161.1 137 161.1 150.2ZM79.8 176.6C89.6 176.6 96.9 174.3 101.7 169.7C106.5 165.1 108.9 158.6 108.9 150.2C108.9 141.8 106.5 135.3 101.7 130.7C96.9 126.1 89.6 123.8 79.8 123.8H51.9V176.6H79.8ZM368.407 295.1C348.607 295.1 330.407 290.5 313.807 281.3C297.407 272.1 284.307 259.3 274.507 242.9C264.907 226.3 260.107 207.7 260.107 187.1C260.107 166.5 264.907 148 274.507 131.6C284.307 115.2 297.407 102.4 313.807 93.2C330.407 84 348.607 79.4 368.407 79.4C388.207 79.4 406.307 84 422.707 93.2C439.307 102.4 452.307 115.2 461.707 131.6C471.307 148 476.107 166.5 476.107 187.1C476.107 207.7 471.307 226.3 461.707 242.9C452.107 259.3 439.107 272.1 422.707 281.3C406.307 290.5 388.207 295.1 368.407 295.1ZM368.407 248.3C385.207 248.3 398.607 242.7 408.607 231.5C418.807 220.3 423.907 205.5 423.907 187.1C423.907 168.5 418.807 153.7 408.607 142.7C398.607 131.5 385.207 125.9 368.407 125.9C351.407 125.9 337.807 131.4 327.607 142.4C317.607 153.4 312.607 168.3 312.607 187.1C312.607 205.7 317.607 220.6 327.607 231.8C337.807 242.8 351.407 248.3 368.407 248.3ZM707.747 293L636.947 200V293H585.647V82.4H636.947V174.8L707.147 82.4H767.447L685.847 185.6L770.447 293H707.747ZM927.127 123.5V166.1H995.827V205.7H927.127V251.9H1004.83V293H875.827V82.4H1004.83V123.5H927.127ZM973.927 40.1L901.627 70.4V35L973.927 0.199979V40.1ZM1170.43 253.4H1237.63V293H1119.13V82.4H1170.43V253.4ZM1394.4 82.4V293H1343.1V82.4H1394.4ZM1640.08 185C1652.28 187.6 1662.08 193.7 1669.48 203.3C1676.88 212.7 1680.58 223.5 1680.58 235.7C1680.58 253.3 1674.38 267.3 1661.98 277.7C1649.78 287.9 1632.68 293 1610.68 293H1512.58V82.4H1607.38C1628.78 82.4 1645.48 87.3 1657.48 97.1C1669.68 106.9 1675.78 120.2 1675.78 137C1675.78 149.4 1672.48 159.7 1665.88 167.9C1659.48 176.1 1650.88 181.8 1640.08 185ZM1563.88 167.6H1597.48C1605.88 167.6 1612.28 165.8 1616.68 162.2C1621.28 158.4 1623.58 152.9 1623.58 145.7C1623.58 138.5 1621.28 133 1616.68 129.2C1612.28 125.4 1605.88 123.5 1597.48 123.5H1563.88V167.6ZM1601.68 251.6C1610.28 251.6 1616.88 249.7 1621.48 245.9C1626.28 241.9 1628.68 236.2 1628.68 228.8C1628.68 221.4 1626.18 215.6 1621.18 211.4C1616.38 207.2 1609.68 205.1 1601.08 205.1H1563.88V251.6H1601.68Z" fill="#DFC02E" fill-opacity="0.5"/>
</svg>
